<?xml version="1.0" encoding="utf-8"?>
<!-- Generator: Adobe Illustrator 26.0.0, SVG Export Plug-In . SVG Version: 6.00 Build 0)  -->
<svg version="1.1" id="레이어_1" xmlns="http://www.w3.org/2000/svg" xmlns:xlink="http://www.w3.org/1999/xlink" x="0px"
	 y="0px" viewBox="0 0 90 90" style="enable-background:new 0 0 90 90;" xml:space="preserve">
<style type="text/css">
	.st0{fill:#FFFFFF;}
</style>
<g>
	<path class="st0" d="M57.17,44.87c0.48,0,0.89-0.19,1.22-0.57c0.33-0.38,0.5-0.91,0.5-1.6v-6.83c0-0.68-0.17-1.22-0.5-1.61
		c-0.33-0.39-0.74-0.58-1.22-0.58c-0.5,0-0.91,0.2-1.25,0.59c-0.33,0.4-0.5,0.93-0.5,1.6v6.83c0,0.68,0.17,1.21,0.5,1.6
		C56.26,44.68,56.67,44.87,57.17,44.87z"/>
	<path class="st0" d="M65.9,32.75c0.96,0,1.75-0.78,1.75-1.75s-0.78-1.75-1.75-1.75c-0.97,0-1.75,0.78-1.75,1.75
		S64.94,32.75,65.9,32.75z"/>
	<path class="st0" d="M45.22,39.49c-0.58,0-1.03,0.25-1.37,0.74c-0.33,0.5-0.5,1.14-0.5,1.93c0,0.8,0.17,1.45,0.5,1.95
		c0.33,0.5,0.79,0.74,1.37,0.74c0.56,0,1.01-0.25,1.34-0.74c0.33-0.5,0.5-1.14,0.5-1.95c0-0.78-0.17-1.42-0.5-1.92
		C46.23,39.74,45.78,39.49,45.22,39.49z"/>
	<path class="st0" d="M45,0C20.15,0,0,20.15,0,45c0,24.85,20.15,45,45,45c24.85,0,45-20.15,45-45C90,20.15,69.85,0,45,0z
		 M65.9,26.98c2.22,0,4.02,1.8,4.02,4.02c0,2.22-1.8,4.02-4.02,4.02c-2.22,0-4.02-1.8-4.02-4.02C61.88,28.78,63.68,26.98,65.9,26.98
		z M52.17,35.82c0-0.67,0.13-1.29,0.38-1.88c0.25-0.58,0.6-1.09,1.04-1.54c0.46-0.43,0.99-0.77,1.6-1.02
		C55.8,31.13,56.46,31,57.17,31c0.7,0,1.35,0.13,1.96,0.38c0.61,0.25,1.13,0.6,1.58,1.02c0.44,0.43,0.79,0.94,1.04,1.53
		c0.25,0.59,0.38,1.22,0.38,1.89v6.91c0,0.74-0.13,1.4-0.38,2c-0.25,0.6-0.6,1.11-1.04,1.54c-0.44,0.41-0.97,0.74-1.58,0.96
		c-0.61,0.23-1.26,0.34-1.96,0.34c-0.71,0-1.37-0.11-1.98-0.34c-0.61-0.23-1.14-0.56-1.6-0.98c-0.44-0.42-0.79-0.92-1.04-1.52
		c-0.25-0.6-0.38-1.26-0.38-2V35.82z M34.46,40.99c-0.38-0.41-0.86-0.61-1.47-0.61h-0.6v-2.61h0.6c0.48,0,0.9-0.19,1.26-0.56
		c0.36-0.37,0.54-0.86,0.54-1.47c0-0.64-0.16-1.14-0.49-1.51s-0.73-0.54-1.19-0.54c-0.56,0-1,0.2-1.3,0.59
		c-0.31,0.4-0.48,0.97-0.52,1.72h-3.23c0.03-1.61,0.5-2.84,1.43-3.7C30.4,31.43,31.59,31,33.05,31c0.74,0,1.41,0.12,2.02,0.35
		c0.61,0.23,1.13,0.55,1.58,0.95c0.43,0.42,0.76,0.9,1,1.47c0.24,0.56,0.36,1.18,0.36,1.85c0,0.35-0.06,0.7-0.17,1.05
		c-0.11,0.35-0.26,0.69-0.45,0.99c-0.19,0.31-0.4,0.58-0.65,0.82s-0.51,0.41-0.79,0.5c0.31,0.12,0.6,0.31,0.88,0.58
		c0.28,0.27,0.53,0.57,0.74,0.9c0.21,0.35,0.38,0.72,0.51,1.1c0.13,0.39,0.19,0.76,0.19,1.12c0,0.75-0.13,1.42-0.38,2.02
		c-0.25,0.6-0.61,1.1-1.06,1.52c-0.46,0.43-1,0.75-1.64,0.97s-1.33,0.33-2.1,0.33c-1.62,0-2.89-0.43-3.82-1.29
		c-0.93-0.86-1.4-2.14-1.4-3.85h3.25c0,0.82,0.17,1.43,0.5,1.84c0.33,0.41,0.82,0.61,1.46,0.61c0.55,0,1.01-0.19,1.38-0.57
		c0.37-0.38,0.55-0.93,0.55-1.66C35.02,41.94,34.83,41.4,34.46,40.99z M43.03,58.88l-6.09,4.14v-4.6
		c-11.07-1.38-19.1-5.54-19.1-10.46c0-3.07,3.14-5.84,8.19-7.83v2.23c-2.08,1.17-3.28,2.54-3.28,4c0,3.25,5.89,6.03,14.19,7.14
		v-3.83l6.36,4.33l3.44,2.34L43.03,58.88z M47.26,47.12c-0.62,0.24-1.3,0.36-2.04,0.36c-0.76,0-1.46-0.12-2.08-0.37
		c-0.62-0.25-1.15-0.6-1.6-1.05c-0.44-0.44-0.78-0.98-1.02-1.63c-0.24-0.64-0.36-1.36-0.34-2.15c0-0.75,0.1-1.5,0.3-2.25
		c0.2-0.75,0.51-1.55,0.92-2.39c0.25-0.54,0.54-1.1,0.86-1.7c0.32-0.6,0.65-1.18,0.98-1.76c0.33-0.58,0.66-1.12,0.96-1.64
		c0.31-0.52,0.59-0.97,0.84-1.38h3.45c-0.64,0.87-1.29,1.83-1.94,2.89c-0.65,1.06-1.21,2.11-1.7,3.15c0.09-0.04,0.27-0.07,0.52-0.09
		c0.25-0.02,0.48-0.02,0.68-0.01c1.22,0.13,2.23,0.64,3.02,1.53c0.8,0.88,1.2,2.04,1.2,3.47c0,0.84-0.13,1.6-0.38,2.26
		c-0.25,0.66-0.6,1.22-1.04,1.68C48.42,46.53,47.88,46.88,47.26,47.12z M48.91,58.8v-4.88c10.43-0.64,18.35-3.77,18.35-7.54
		c0-1.47-1.2-2.84-3.28-4v-2.23c5.05,1.99,8.19,4.76,8.19,7.83C72.16,53.48,62.06,58.03,48.91,58.8z"/>
</g>
</svg>
