<?xml version="1.0" encoding="utf-8"?>
<!-- Generator: Adobe Illustrator 24.2.0, SVG Export Plug-In . SVG Version: 6.00 Build 0)  -->
<svg version="1.1" id="Layer_1" xmlns="http://www.w3.org/2000/svg" xmlns:xlink="http://www.w3.org/1999/xlink" x="0px" y="0px"
	 viewBox="0 0 50 50" style="enable-background:new 0 0 50 50;" xml:space="preserve">
<style type="text/css">
	.st0{fill:#FFFFFF;}
</style>
<g>
	<path class="st0" d="M25,1c13.2,0,24,10.8,24,24S38.2,49,25,49S1,38.2,1,25S11.8,1,25,1 M25,0C11.2,0,0,11.2,0,25s11.2,25,25,25
		s25-11.2,25-25S38.8,0,25,0L25,0z"/>
	<path class="st0" d="M27.7,38.1c-0.1,0-0.3-0.1-0.4-0.2L14.8,25.4c-0.2-0.2-0.2-0.6,0-0.8l12.5-12.5c0.2-0.2,0.6-0.2,0.8,0
		c0.2,0.2,0.2,0.6,0,0.8L16,25l12.1,12.1c0.2,0.2,0.2,0.6,0,0.8C28,38,27.8,38.1,27.7,38.1z"/>
</g>
</svg>
