<?xml version="1.0" encoding="utf-8"?>
<!-- Generator: Adobe Illustrator 26.0.0, SVG Export Plug-In . SVG Version: 6.00 Build 0)  -->
<svg version="1.1" id="레이어_1" xmlns="http://www.w3.org/2000/svg" xmlns:xlink="http://www.w3.org/1999/xlink" x="0px"
	 y="0px" viewBox="0 0 15 15" style="enable-background:new 0 0 15 15;" xml:space="preserve">
<style type="text/css">
	.st0{fill:#1A1A1A;}
</style>
<g>
	<g>
		<path class="st0" d="M7.5,6.01c-0.84,0-1.51,0.68-1.51,1.51c0,0.84,0.68,1.51,1.51,1.51c0.84,0,1.51-0.68,1.51-1.51
			S8.34,6.01,7.5,6.01z"/>
	</g>
	<g>
		<path class="st0" d="M9.45,3.85h-3.9c-0.95,0-1.72,0.77-1.72,1.72v3.89c0,0.95,0.77,1.72,1.72,1.72h3.89
			c0.95,0,1.72-0.77,1.72-1.72V5.58C11.17,4.62,10.4,3.85,9.45,3.85z M7.5,9.86c-1.29,0-2.33-1.05-2.33-2.33
			c0-1.29,1.04-2.34,2.33-2.34s2.34,1.05,2.34,2.34C9.84,8.81,8.79,9.86,7.5,9.86z M9.91,5.64c-0.3,0-0.54-0.24-0.54-0.54
			s0.24-0.54,0.54-0.54s0.54,0.24,0.54,0.54C10.46,5.4,10.21,5.64,9.91,5.64z"/>
	</g>
	<g>
		<path class="st0" d="M7.5,0C3.36,0,0,3.36,0,7.5S3.36,15,7.5,15S15,11.64,15,7.5S11.64,0,7.5,0z M12,9.4c0,1.44-1.16,2.6-2.6,2.6
			H5.6C4.16,12,3,10.84,3,9.4V5.6C3,4.16,4.16,3,5.6,3h3.8C10.84,3,12,4.16,12,5.6V9.4z"/>
	</g>
</g>
</svg>
