<?xml version="1.0" encoding="utf-8"?>
<!-- Generator: Adobe Illustrator 26.0.0, SVG Export Plug-In . SVG Version: 6.00 Build 0)  -->
<svg version="1.1" id="레이어_1" xmlns="http://www.w3.org/2000/svg" xmlns:xlink="http://www.w3.org/1999/xlink" x="0px"
	 y="0px" viewBox="0 0 15 15" style="enable-background:new 0 0 15 15;" xml:space="preserve">
<style type="text/css">
	.st0{fill:#1A1A1A;}
</style>
<g>
	<g>
		<path class="st0" d="M7.5,7.45c-0.65,0-1.18,0.53-1.18,1.18c0,0.65,0.53,1.18,1.18,1.18s1.18-0.53,1.18-1.18
			C8.68,7.97,8.15,7.45,7.5,7.45z"/>
	</g>
	<g>
		<path class="st0" d="M7.5,0C3.36,0,0,3.36,0,7.5S3.36,15,7.5,15S15,11.64,15,7.5S11.64,0,7.5,0z M7.91,11.43
			c-1.11,0-1.55-0.79-1.55-0.79v0.6H4.5V3.57h1.84v2.92c0.75-0.73,1.57-0.73,1.57-0.73c2.5,0,2.59,2.8,2.59,2.8
			C10.5,11.33,7.91,11.43,7.91,11.43z"/>
	</g>
</g>
</svg>
