<?xml version="1.0" encoding="utf-8"?>
<!-- Generator: Adobe Illustrator 26.0.0, SVG Export Plug-In . SVG Version: 6.00 Build 0)  -->
<svg version="1.1" id="레이어_1" xmlns="http://www.w3.org/2000/svg" xmlns:xlink="http://www.w3.org/1999/xlink" x="0px"
	 y="0px" viewBox="0 0 15 15" style="enable-background:new 0 0 15 15;" xml:space="preserve">
<style type="text/css">
	.st0{fill:#1A1A1A;}
</style>
<g>
	<g>
		<polygon class="st0" points="6.46,6.3 6.46,7.5 6.46,8.7 7.5,8.1 8.54,7.5 7.5,6.9 		"/>
	</g>
	<g>
		<path class="st0" d="M7.5,0C3.36,0,0,3.36,0,7.5S3.36,15,7.5,15S15,11.64,15,7.5S11.64,0,7.5,0z M11.41,9.21
			c-0.06,0.53-0.57,1-1.1,1.04c-1.87,0.12-3.74,0.12-5.61,0c-0.53-0.04-1.04-0.51-1.1-1.04c-0.12-1.14-0.12-2.28,0-3.43
			c0.06-0.53,0.57-1,1.1-1.04c1.87-0.12,3.74-0.12,5.61,0c0.53,0.04,1.04,0.51,1.1,1.04C11.53,6.93,11.53,8.07,11.41,9.21z"/>
	</g>
</g>
</svg>
