<?xml version="1.0" encoding="utf-8"?>
<!-- Generator: Adobe Illustrator 26.0.0, SVG Export Plug-In . SVG Version: 6.00 Build 0)  -->
<svg version="1.1" id="레이어_1" xmlns="http://www.w3.org/2000/svg" xmlns:xlink="http://www.w3.org/1999/xlink" x="0px"
	 y="0px" viewBox="0 0 120 120" style="enable-background:new 0 0 120 120;" xml:space="preserve">
<style type="text/css">
	.st0{fill:none;stroke:#3F69B2;stroke-width:2;stroke-miterlimit:10;}
	.st1{fill:#3F69B2;}
</style>
<path class="st0" d="M75.07,70.48v15.05c0,0,11.72-2.79,23.67-0.16l-3.8-23.51l-5.59-3.1l-0.7-7.45c0.62-0.23,7.6-3.1,9.85-4.11
	c1.78-0.78,3.1-1.32,3.1-1.32c2.02-1.09,0-2.17,0-2.17c-0.54-0.16-1.09-0.23-1.63-0.39c-0.47-0.16-1.01-0.23-1.47-0.39
	c-2.79-0.78-5.35-1.63-7.84-2.64c-2.87-1.16-5.43-2.41-7.84-3.72c-1.32-0.78-2.56-1.47-3.72-2.25l0,0
	c-1.47-0.93-2.79-1.94-4.11-2.87c-2.72-2.1-4.97-4.19-6.75-6.13l0,0c-0.39-0.39-0.7-0.78-1.01-1.09c-3.49-3.88-5.04-6.75-5.04-6.75
	c-1.47-2.64-2.64,0-2.64,0c-0.08,0.08-0.08,0.16-0.16,0.23c-2.02,3.03-4.19,5.51-6.52,7.68l0,0c-0.47,0.39-0.85,0.78-1.32,1.16
	c-2.64,2.25-5.28,3.96-7.84,5.35c-2.02,1.09-3.88,1.86-5.66,2.48c-0.78,0.23-1.47,0.54-2.17,0.7c-3.96,1.24-6.83,1.47-7.22,1.55
	c0,0-1.16,0.23-0.62,1.63c0.54,1.32,4.11,3.34,7.53,5.12c0.08,0.08,6.83,3.18,6.83,3.18l-0.54,7.91l-9.23,3.18l-5.12,36
	c0,0,13.89-0.08,23.98-3.65l0.16-19.55c0,0,0-9.08,7.84-9.08h7.84C75.07,61.41,75.07,70.48,75.07,70.48"/>
<path class="st1" d="M60,2c31.98,0,58,26.02,58,58s-26.02,58-58,58S2,91.98,2,60S28.02,2,60,2 M60,0C26.86,0,0,26.86,0,60
	s26.86,60,60,60s60-26.86,60-60S93.14,0,60,0L60,0z"/>
</svg>
