<?xml version="1.0" encoding="utf-8"?>
<!-- Generator: Adobe Illustrator 26.0.0, SVG Export Plug-In . SVG Version: 6.00 Build 0)  -->
<svg version="1.1" id="레이어_1" xmlns="http://www.w3.org/2000/svg" xmlns:xlink="http://www.w3.org/1999/xlink" x="0px"
	 y="0px" viewBox="0 0 120 120" style="enable-background:new 0 0 120 120;" xml:space="preserve">
<style type="text/css">
	.st0{fill:none;stroke:#3F69B2;stroke-width:2;stroke-miterlimit:10;}
	.st1{fill:#3F69B2;}
</style>
<g>
	<path class="st0" d="M64.36,38.15c-0.65-3.98-5.47-6.5-10.76-5.63s-9.05,4.8-8.4,8.78c0.65,3.98,5.47,6.5,10.76,5.63
		C61.26,46.06,65.02,42.13,64.36,38.15z"/>
	<path class="st0" d="M87.16,34.35c-1.49-2.02-3.76-3.67-5.58-4.96c-4.17-2.95-8.95-5.02-13.96-6.06
		c-10.13-2.11-20.87,0.11-29.31,6.1c-0.71,0.5-1.39,1.03-2.06,1.57c-16.01,13.1-18.38,36.7-5.28,52.71s36.69,18.38,52.71,5.28
		c4.3-3.51,10.22-9.59,6.46-15.6c-1.98-3.17-5.81-4.27-8.89-6.01c-3.41-1.93-5.44-4.74-6-8.55"/>
	<path class="st0" d="M38.28,64.91c-1.12-2.66-3.73-4.09-5.84-3.2s-2.91,3.76-1.79,6.41c1.12,2.65,3.73,4.09,5.84,3.2
		C38.59,70.43,39.4,67.56,38.28,64.91z"/>
	<path class="st0" d="M39.8,76.79c-1.6,1.63-1.23,4.59,0.83,6.61s5.02,2.32,6.62,0.69s1.23-4.59-0.83-6.61
		C44.37,75.47,41.4,75.16,39.8,76.79z"/>
	<path class="st0" d="M54.64,86.68c0,2.29,2.33,4.14,5.21,4.15c2.88,0,5.22-1.85,5.22-4.13c0-2.29-2.33-4.14-5.21-4.15
		C56.98,82.55,54.64,84.4,54.64,86.68z"/>
	<path class="st0" d="M70.35,82.49c1.29,1.89,4.27,2.09,6.64,0.47c2.38-1.63,3.25-4.48,1.96-6.36c-1.29-1.89-4.27-2.09-6.64-0.47
		C69.93,77.75,69.06,80.6,70.35,82.49z"/>
	<path class="st0" d="M70.55,62.96c0.14,3.26-1.44,8.34-12.23,9.39c0.55-10.39,5.19-12.47,8.44-12.62"/>
	<path class="st0" d="M70.55,62.96c0.72,0.01,1.42-0.27,1.9-0.84l2.8-3.29"/>
	<path class="st0" d="M87.16,34.35l4.61-5.42c0.91-1.07,2.58-1.14,3.74-0.15l0.98,0.83c1.16,0.98,1.36,2.65,0.45,3.71L75.25,58.84"
		/>
	<path class="st0" d="M66.76,59.74c-0.12-0.71,0.04-1.44,0.52-2.01l19.88-23.38"/>
	<path class="st0" d="M70.55,62.96c-0.64,0-1.29-0.23-1.83-0.69l-0.98-0.83c-0.55-0.46-0.87-1.08-0.98-1.71"/>
</g>
<path class="st1" d="M60,2c31.98,0,58,26.02,58,58s-26.02,58-58,58S2,91.98,2,60S28.02,2,60,2 M60,0C26.86,0,0,26.86,0,60
	s26.86,60,60,60s60-26.86,60-60S93.14,0,60,0L60,0z"/>
</svg>
