<?xml version="1.0" encoding="utf-8"?>
<!-- Generator: Adobe Illustrator 26.0.0, SVG Export Plug-In . SVG Version: 6.00 Build 0)  -->
<svg version="1.1" id="레이어_1" xmlns="http://www.w3.org/2000/svg" xmlns:xlink="http://www.w3.org/1999/xlink" x="0px"
	 y="0px" viewBox="0 0 120 120" style="enable-background:new 0 0 120 120;" xml:space="preserve">
<style type="text/css">
	.st0{fill:#3F69B2;}
	.st1{fill:none;stroke:#3F69B2;stroke-width:2;stroke-miterlimit:10;}
</style>
<path class="st0" d="M60,2c31.98,0,58,26.02,58,58s-26.02,58-58,58S2,91.98,2,60S28.02,2,60,2 M60,0C26.86,0,0,26.86,0,60
	s26.86,60,60,60s60-26.86,60-60S93.14,0,60,0L60,0z"/>
<g>
	<path class="st1" d="M34.63,51.59c0.06-0.34,0.11-0.66,0.14-0.83c0.3-1.8,0.83-5.2,0.89-5.48c0.76-3.98-5.64-5.35-6.76-2.03
		c-0.6,1.77-1.22,3.78-2.49,8.04c-0.18,0.62-0.72,0.82-1.09,0.89c-0.2,0.04-0.61,0.05-1.14,0.09c-1.24,0.07-3.74,0.34-7.96,0.43
		c-2.25,0.05-3.71,0.84-3.72,2.9c-0.01,2.57,2.69,2.88,4.39,3.08c1.99,0.23,4.21,0.26,5.49,0.57c1.07,0.26,1.33,0.67,1.32,1.52
		c0,0.29-1.36,16.87-1.34,17.09c0,0.33-0.23,4.99-0.23,7.01c0,3.25,2.1,3.46,2.1,3.46c2.84,0.41,3.09-2.83,3.09-2.83
		s0.05-0.84,0.1-1.96c0.34,0.01,0.65,0,0.95-0.04c0.07,0.56,0.16,1.3,0.25,1.86c0.55,3.21,2.64,3.01,2.64,3.01
		c2.86-0.09,2.55-3.26,2.55-3.26c-0.08-1.34-0.37-16.08-0.14-20.99c0.07-1.43,1.34-0.64,1.34-0.64l3.18,2.1
		c2.45,1.73,4.04,1.19,4.78,0.3c1.13-1.36,0.52-3.25-0.63-4.23c-0.88-0.76-2.71-2.46-4.33-3.99"/>
	<path class="st1" d="M38.01,57.65c-1.58-1.5-2.96-2.82-3.03-2.89c-0.38-0.42-0.65-0.65-0.58-1.75c0.01-0.15,0.12-0.82,0.22-1.42"/>
	<path class="st1" d="M60.87,47.94c2.29-2.27,4.48-4.7,5.48-5.79c0.78-0.84,1.28-1.5,1.53-2.26c0.59-1.84-0.29-3.06-1.76-3.64
		c-0.6-0.24-1.78-0.24-3.05,0.42c-2.45,1.29-5.85,4.41-7.56,5.51c-0.93,0.6-2.12,1.06-3.18-0.78c-1.69-2.94-4.11-7.8-4.67-8.57
		c-1.23-1.68-4.01-1.62-5.96-0.15c0,0-2.02,1.09-1.6,3.51c0.24,1.37,2.82,8.47,3.12,9.39c0.31,0.94,0.13,2.09-1.55,2.98
		c-0.78,0.41-3.54,1.56-5.94,2.56c-0.39,0.16-0.75,0.32-1.1,0.46"/>
	<path class="st1" d="M38.01,57.65c2.54-0.53,4.88-0.97,4.88-0.97s2.18-0.27,2.23,2.63c0.12,6.75,0.17,19.53-0.13,24.18
		c-0.02,0.33-0.1,1.42,0,2.12c0.17,1.16,0.75,2.68,2.83,2.76c1.32,0.05,3.25,0,3.83-3.82c0.11-0.71,0.17-1.43,0.25-2.14
		c0.37,0.03,0.77,0.04,1.2,0c0.06,0.67,0.11,1.39,0.15,1.83c0.04,0.5,0.07,1.22,0.19,1.78c0.24,1.17,0.87,2.49,3.32,2.35
		c0,0,3.24-0.07,2.99-4.51c-0.64-14.28-1.4-22.9-1.74-26.97c-0.07-0.9-0.13-1.59-0.15-2.08c-0.01-0.21-0.02-0.4-0.02-0.6"/>
	<path class="st1" d="M60.87,47.94c-0.45,0.45-0.9,0.89-1.35,1.31c-0.42,0.4-0.72,0.73-0.98,1.11c-0.64,0.91-0.77,2.03-0.7,3.85"/>
	<path class="st1" d="M57.83,54.22c0.19,0.08,0.39,0.17,0.6,0.25c1.54,0.65,2.79,1.17,4.42,1.98c2.17,1.08,2.68,1.53,2.71,2.62
		c0.02,1.21-1.51,24.52-1.56,25.29c-0.23,3.89,2.96,4.01,2.96,4.01c2.94,0.25,3.28-3.08,3.28-3.08s0.11-1.06,0.26-2.33
		c0.38,0.04,0.74,0.03,1.07,0c0.04,0.64,0.08,1.27,0.15,1.9c0.35,3.64,3.15,3.51,3.15,3.51c3.22,0.02,3.17-3.59,3.17-3.59
		c-0.15-1.07-0.59-21.58-0.5-22.99c0.07-1.21-0.01-2.47,1.07-3.12c1.13-0.68,6.22-2.45,9.41-3.61"/>
	<path class="st1" d="M60.87,47.94c1.06,0.31,2.23,0.64,3.83,1.04c1.75,0.44,2.88,0.66,3.55-1.79c0.55-1.99,1.44-5.84,2.06-8.18
		c0.41-1.54,1.8-2.71,4.04-2.5c2.3,0.22,3.35,1.5,3.41,3.11c0.04,1.23-0.33,8.22-0.31,9.26c0.02,0.86-0.05,2.06,1.03,1.86
		c2.05-0.38,4.62-1.06,7.07-1.56"/>
	<path class="st1" d="M88.01,55.06c-0.01-0.02-0.02-0.04-0.03-0.05c-0.83-1.56-1.7-3.22-2.16-4.21c-0.06-0.14-0.4-0.82-0.28-1.63"/>
	<path class="st1" d="M88.01,55.06c0.2,0.37,0.4,0.74,0.58,1.09c0.79,1.47,1.22,2.36,1.22,2.36s0.33,0.67-0.56,0.73
		c0,0-4.98,0.29-6.92,0.56c-1.19,0.17-2.49,0.76-2.68,2.08c-0.18,1.22,0.53,2.53,2.35,2.77c0.33,0.04,5.7,0.8,7.4,0.95
		c0.39,0.03,1.56,0.1,1.97,1.17c0.18,0.47,0.3,1.13,0.28,2.08c-0.03,1.34-0.34,11.75-0.6,15.42c-0.02,0.31-0.15,1.65,0.03,2.34
		c0.22,0.85,0.89,1.86,2.62,1.75c0.69-0.04,1.88-0.22,2.27-2.96c0.08-0.54,0.08-1.1,0.16-1.63c0.28,0.03,0.58,0.03,0.9,0
		c0.03,1.07,0.08,2.41,0.24,2.92c0.21,0.7,0.73,1.55,2.01,1.69c1.79,0.18,2.79-0.94,2.79-3.4c0-1.92-1-18.35-1-18.35L101,65.9
		c0,0-0.33-3.25,1.14-5.91c0.21-0.39,3.93-6.77,3.93-6.77s0.94-1.62,1.14-2.19c0.33-0.97,0.46-1.79-0.05-2.69
		c-0.19-0.33-0.77-1.01-1.7-1.07c-0.89-0.06-1.99,0.13-3.28,1.71c-0.43,0.52-4.23,5.13-4.55,5.59c-0.2,0.29-0.63,0.71-1.12,0.09
		c-0.12-0.15-4.64-6.78-5.31-7.5c-1.08-1.15-2.6-1.07-3.87-0.34c-0.77,0.44-1.43,1.18-1.7,2.02c-0.03,0.12-0.06,0.24-0.08,0.35"/>
</g>
</svg>
