<?xml version="1.0" encoding="utf-8"?>
<!-- Generator: Adobe Illustrator 26.0.0, SVG Export Plug-In . SVG Version: 6.00 Build 0)  -->
<svg version="1.1" id="레이어_1" xmlns="http://www.w3.org/2000/svg" xmlns:xlink="http://www.w3.org/1999/xlink" x="0px"
	 y="0px" viewBox="0 0 120 120" style="enable-background:new 0 0 120 120;" xml:space="preserve">
<style type="text/css">
	.st0{fill:none;stroke:#3F69B2;stroke-width:2;stroke-miterlimit:10;}
	.st1{fill:#3F69B2;}
</style>
<g>
	<path class="st0" d="M35.35,92.32V43.98c-1.39,1.61-3.29,3.08-5.7,4.42c-2.41,1.34-4.79,2.3-7.15,2.89v-11.8
		c2.25-0.8,4.62-2.22,7.11-4.26c2.49-2.03,4.48-4.58,5.98-7.63h12.69v64.72C48.28,92.32,35.35,92.32,35.35,92.32z"/>
	<path class="st0" d="M95.97,81.76c-1.02,2.38-2.41,4.43-4.18,6.14c-1.77,1.66-3.87,2.94-6.3,3.85c-2.44,0.91-5.05,1.37-7.83,1.37
		c-2.84,0-5.47-0.46-7.91-1.37c-2.44-0.91-4.56-2.22-6.38-3.94c-1.77-1.66-3.16-3.68-4.18-6.06s-1.53-5.04-1.53-7.99V46.15
		c0-2.68,0.51-5.18,1.53-7.51s2.41-4.38,4.18-6.14c1.82-1.71,3.95-3.08,6.38-4.1c2.44-1.02,5.07-1.53,7.91-1.53
		c2.78,0,5.39,0.51,7.83,1.53s4.54,2.38,6.3,4.1c1.77,1.71,3.16,3.75,4.18,6.1c1.02,2.36,1.53,4.87,1.53,7.55v27.62
		C97.5,76.72,96.99,79.38,95.97,81.76z M84.57,46.39c0-2.73-0.67-4.87-2.01-6.42c-1.34-1.55-2.97-2.33-4.9-2.33
		c-1.98,0-3.64,0.79-4.98,2.37c-1.34,1.58-2.01,3.71-2.01,6.38v27.3c0,2.73,0.67,4.86,2.01,6.38c1.34,1.53,3,2.29,4.98,2.29
		c1.93,0,3.56-0.76,4.9-2.29c1.34-1.53,2.01-3.65,2.01-6.38V46.39z"/>
</g>
<path class="st1" d="M60,2c31.98,0,58,26.02,58,58s-26.02,58-58,58S2,91.98,2,60S28.02,2,60,2 M60,0C26.86,0,0,26.86,0,60
	s26.86,60,60,60s60-26.86,60-60S93.14,0,60,0L60,0z"/>
</svg>
