<?xml version="1.0" encoding="utf-8"?>
<!-- Generator: Adobe Illustrator 26.0.0, SVG Export Plug-In . SVG Version: 6.00 Build 0)  -->
<svg version="1.1" id="레이어_1" xmlns="http://www.w3.org/2000/svg" xmlns:xlink="http://www.w3.org/1999/xlink" x="0px"
	 y="0px" viewBox="0 0 25 25" style="enable-background:new 0 0 25 25;" xml:space="preserve">
<style type="text/css">
	.st0{fill:none;}
</style>
<path d="M15.1,12.9C16.8,11.9,18,10.1,18,8c0-3-2.5-5.5-5.5-5.5C9.5,2.5,7,5,7,8c0,2.1,1.2,3.9,2.9,4.9c-4.3,1.1-7.4,5-7.4,9.6h1
	c0-5,4-9,9-9c5,0,9,4,9,9h1C22.5,17.9,19.4,14,15.1,12.9z M8,8c0-2.5,2-4.5,4.5-4.5S17,5.5,17,8s-2,4.5-4.5,4.5S8,10.5,8,8z"/>
<rect class="st0" width="25" height="25"/>
</svg>
