<?xml version="1.0" encoding="utf-8"?>
<!-- Generator: Adobe Illustrator 24.2.0, SVG Export Plug-In . SVG Version: 6.00 Build 0)  -->
<svg version="1.1" id="레이어_1" xmlns="http://www.w3.org/2000/svg" xmlns:xlink="http://www.w3.org/1999/xlink" x="0px"
	 y="0px" viewBox="0 0 420 100" style="enable-background:new 0 0 420 100;" xml:space="preserve">
<style type="text/css">
	.st0{clip-path:url(#SVGID_2_);}
	.st1{fill:url(#SVGID_3_);}
	.st2{fill:url(#SVGID_4_);}
	.st3{fill:url(#SVGID_5_);}
	.st4{fill:url(#SVGID_6_);}
	.st5{fill:url(#SVGID_7_);}
	.st6{fill:#B5B5B6;}
	.st7{fill:url(#SVGID_8_);}
	.st8{fill:url(#SVGID_9_);}
	.st9{fill:url(#SVGID_10_);}
	.st10{fill:url(#SVGID_11_);}
	.st11{fill:url(#SVGID_12_);}
	.st12{fill:url(#SVGID_13_);}
	.st13{fill:url(#SVGID_14_);}
	.st14{fill:url(#SVGID_15_);}
	.st15{fill:url(#SVGID_16_);}
	.st16{fill:url(#SVGID_17_);}
	.st17{fill:url(#SVGID_18_);}
	.st18{fill:url(#SVGID_19_);}
	.st19{fill:url(#SVGID_20_);}
	.st20{fill:url(#SVGID_21_);}
	.st21{fill:url(#SVGID_22_);}
</style>
<g>
	<g>
		<g>
			<g>
				<g>
					<defs>
						<path id="SVGID_1_" d="M61.3,70.1v19.4c0,0,15.1-3.6,30.5-0.2L86.9,59l-7.2-4l-0.9-9.6c0.8-0.3,9.8-4,12.7-5.3
							c2.3-1,4-1.7,4-1.7c2.6-1.4,0-2.8,0-2.8c-0.7-0.2-1.4-0.3-2.1-0.5c-0.6-0.2-1.3-0.3-1.9-0.5c-3.6-1-6.9-2.1-10.1-3.4
							c-3.7-1.5-7-3.1-10.1-4.8c-1.7-1-3.3-1.9-4.8-2.9l0,0c-1.9-1.2-3.6-2.5-5.3-3.7c-3.5-2.7-6.4-5.4-8.7-7.9l0,0
							c-0.5-0.5-0.9-1-1.3-1.4c-4.5-5-6.5-8.7-6.5-8.7c-1.9-3.4-3.4,0-3.4,0c-0.1,0.1-0.1,0.2-0.2,0.3C38.5,6,35.7,9.2,32.7,12l0,0
							c-0.6,0.5-1.1,1-1.7,1.5c-3.4,2.9-6.8,5.1-10.1,6.9c-2.6,1.4-5,2.4-7.3,3.2c-1,0.3-1.9,0.7-2.8,0.9c-5.1,1.6-8.8,1.9-9.3,2
							c0,0-1.5,0.3-0.8,2.1c0.7,1.7,5.3,4.3,9.7,6.6c0.1,0.1,8.8,4.1,8.8,4.1l-0.7,10.2L6.6,53.6L0,100c0,0,17.9-0.1,30.9-4.7
							l0.2-25.2c0,0,0-11.7,10.1-11.7h10.1C61.3,58.4,61.3,70.1,61.3,70.1"/>
					</defs>
					<clipPath id="SVGID_2_">
						<use xlink:href="#SVGID_1_"  style="overflow:visible;"/>
					</clipPath>
					<g class="st0">
						
							<linearGradient id="SVGID_3_" gradientUnits="userSpaceOnUse" x1="-168.2894" y1="77.843" x2="-171.829" y2="56.3609" gradientTransform="matrix(0.9953 -9.710000e-02 -9.710000e-02 -0.9953 215.4938 61.1246)">
							<stop  offset="7.300000e-02" style="stop-color:#3A60AC"/>
							<stop  offset="0.2178" style="stop-color:#385CA2"/>
							<stop  offset="0.4879" style="stop-color:#315185"/>
							<stop  offset="0.851" style="stop-color:#223E58"/>
							<stop  offset="1" style="stop-color:#1B3545"/>
						</linearGradient>
						<path class="st1" d="M38.6,25.9C55,22.3,76.5,25,84.8,23.5c-11.5-9.3-32.1-26-47.9-24.4C18.7,1,1.9,16-7.5,30.5
							C-0.2,30.1,20.5,29.9,38.6,25.9z"/>
						
							<linearGradient id="SVGID_4_" gradientUnits="userSpaceOnUse" x1="-170.4471" y1="54.9484" x2="-173.3098" y2="35.4851" gradientTransform="matrix(0.9953 -9.710000e-02 -9.710000e-02 -0.9953 215.4938 61.1246)">
							<stop  offset="1.820000e-02" style="stop-color:#0088CC"/>
							<stop  offset="0.2769" style="stop-color:#0070A7"/>
							<stop  offset="0.8415" style="stop-color:#003A59"/>
							<stop  offset="0.9152" style="stop-color:#003351"/>
						</linearGradient>
						<path class="st2" d="M46.4,43c23.7-4.3,39.8-10.7,47.5-13.4c-3.7-6.9-1.8-6.1-7.7-10.9c-8.6,0-31.6,4.3-48.4,5.1
							c-18,0.9-36.8-3.4-44.1-3c-3.5,5.4-6.2,16.3-7.9,22.7C-6.6,44.4,18.3,48,46.4,43z"/>
						
							<linearGradient id="SVGID_5_" gradientUnits="userSpaceOnUse" x1="-168.649" y1="43.367" x2="-174.6021" y2="6.5953" gradientTransform="matrix(0.9953 -9.710000e-02 -9.710000e-02 -0.9953 215.4938 61.1246)">
							<stop  offset="7.300000e-02" style="stop-color:#00A8E7"/>
							<stop  offset="0.4329" style="stop-color:#0078A7"/>
							<stop  offset="0.8214" style="stop-color:#004871"/>
							<stop  offset="1" style="stop-color:#00375F"/>
						</linearGradient>
						<path class="st3" d="M100.7,50.5c-1-7.6-1.4-15.5-4.9-21.8c-7.7,2.7-28,9.1-51.7,13.3C16,47.1-6.6,44.4-14.3,43.5
							c-1.8,6.8-2.4,14-1.8,21.3c0.5,4.9,1.5,13,3,17.4c10.9-1.3,46-5,64.1-16.1C66.2,56.8,90.7,53.1,100.7,50.5z"/>
						
							<linearGradient id="SVGID_6_" gradientUnits="userSpaceOnUse" x1="-172.1996" y1="25.7171" x2="-170.1375" y2="-8.3074" gradientTransform="matrix(0.9953 -9.710000e-02 -9.710000e-02 -0.9953 215.4938 61.1246)">
							<stop  offset="7.300000e-02" style="stop-color:#B3DDD5"/>
							<stop  offset="0.4626" style="stop-color:#79B3BF"/>
							<stop  offset="1" style="stop-color:#007CA1"/>
						</linearGradient>
						<path class="st4" d="M100.7,50.5c-15.4-0.1-46.5,11.9-60.8,18C22.1,76-2.1,81-13,82.2c1.7,4.9,3.9,6.1,6.7,10.3
							c8.8-0.4,29-2,44.3-6.8c19.2-6.1,45.2-9.8,61.2-11.6c1.8-6.7,2.4-13.9,1.7-21.3C100.9,52.1,100.8,51.3,100.7,50.5z"/>
						
							<linearGradient id="SVGID_7_" gradientUnits="userSpaceOnUse" x1="-172.6814" y1="5.856" x2="-167.0471" y2="-23.1198" gradientTransform="matrix(0.9953 -9.710000e-02 -9.710000e-02 -0.9953 215.4938 61.1246)">
							<stop  offset="3.930000e-02" style="stop-color:#E5ECF7"/>
							<stop  offset="0.3653" style="stop-color:#C5D4ED"/>
							<stop  offset="0.9888" style="stop-color:#78A1D5"/>
						</linearGradient>
						<path class="st5" d="M-6.4,92.5c3,4.5,6.5,8.5,10.4,11.9c10.5-1.2,38.3-4.7,60.6-11.5c16.1-4.9,24.3-1,29.5-2.2
							c1.5-3.3,4.1-13,5.1-16.6C77.8,71.8,66.3,76.7,38,85.7C22.6,90.5,2.5,92.1-6.4,92.5z"/>
					</g>
				</g>
			</g>
		</g>
	</g>
	<g>
		<path class="st6" d="M116.2,85.3c0.3,0.4,0.4,0.8,0.3,1.3c-0.1,0.6-0.4,1.2-0.9,1.6c-0.5,0.5-1.3,0.7-2.3,0.7
			c-1.1,0-1.9-0.3-2.5-0.9s-0.8-1.3-0.8-2.1h0.8c0,0.8,0.2,1.3,0.7,1.7c0.5,0.4,1.1,0.6,1.8,0.6c0.6,0,1.2-0.1,1.6-0.4
			s0.7-0.7,0.8-1.2c0.1-0.4,0-0.7-0.2-0.9s-0.5-0.5-0.9-0.6c-0.4-0.2-0.8-0.3-1.3-0.3c-0.5-0.1-0.9-0.2-1.3-0.3
			c-0.6-0.2-1-0.5-1.3-0.8s-0.4-0.8-0.4-1.3s0.3-1.1,0.8-1.6s1.2-0.8,2.2-0.8c1.2,0,2,0.3,2.4,1s0.6,1.2,0.6,1.7h-0.8
			c0-0.5-0.2-1-0.6-1.4s-0.9-0.6-1.6-0.6c-0.6,0-1.1,0.2-1.5,0.5s-0.6,0.7-0.6,1.1s0.1,0.8,0.4,1s0.6,0.4,0.9,0.5s0.7,0.2,1.2,0.3
			c0.5,0.1,1,0.2,1.4,0.4C115.5,84.6,115.9,84.9,116.2,85.3z"/>
		<path class="st6" d="M129.4,86.1c0,0.8-0.3,1.4-0.8,2c-0.6,0.6-1.4,0.8-2.4,0.8s-1.8-0.3-2.4-0.8c-0.5-0.6-0.8-1.2-0.8-2v-5.8h0.8
			V86c0,0.6,0.2,1.1,0.6,1.6c0.4,0.4,1,0.7,1.8,0.7s1.4-0.2,1.8-0.7c0.4-0.4,0.6-1,0.6-1.6v-5.7h0.8V86.1z"/>
		<path class="st6" d="M143.8,88.7H143l-2-7.2l-2,7.2h-0.9l-2.3-8.5h0.8l1.9,7.2l1.9-7.2h1l1.9,7.2l1.9-7.2h0.8L143.8,88.7z"/>
		<path class="st6" d="M159.2,81.3c0.7,0.8,1,1.9,1,3.2c0,1.3-0.3,2.4-1,3.2c-0.7,0.8-1.6,1.2-2.8,1.2s-2.1-0.4-2.8-1.2
			c-0.7-0.8-1-1.9-1-3.2c0-1.3,0.3-2.4,1-3.2s1.6-1.2,2.8-1.2C157.6,80.1,158.5,80.5,159.2,81.3z M158.6,87.2
			c0.5-0.7,0.8-1.6,0.8-2.7s-0.3-1.9-0.8-2.6s-1.3-1-2.2-1s-1.6,0.3-2.1,1s-0.8,1.6-0.8,2.6c0,1.1,0.3,2,0.8,2.7s1.3,1,2.1,1
			C157.3,88.2,158.1,87.9,158.6,87.2z"/>
		<path class="st6" d="M172.3,88.7l-4.7-7.3v7.2h-0.8v-8.4h0.9l4.8,7.3v-7.3h0.8v8.4h-1V88.7z"/>
		<path class="st6" d="M193.5,82.7c-0.1-0.4-0.4-0.8-0.8-1.3c-0.4-0.4-1-0.6-1.8-0.6c-0.9,0-1.6,0.3-2.1,1s-0.8,1.6-0.8,2.6
			c0,1.1,0.3,2,0.8,2.7s1.2,1,2.1,1c0.8,0,1.4-0.2,1.8-0.7c0.4-0.4,0.7-0.9,0.8-1.3h0.9c-0.1,0.5-0.5,1.1-1,1.8
			c-0.6,0.6-1.4,1-2.5,1c-1.2,0-2.1-0.4-2.8-1.2c-0.7-0.8-1-1.9-1-3.2c0-1.3,0.3-2.4,1-3.2c0.7-0.8,1.6-1.2,2.8-1.2
			c1.1,0,1.9,0.3,2.5,0.9s0.9,1.2,1,1.7C194.4,82.7,193.5,82.7,193.5,82.7z"/>
		<path class="st6" d="M207.3,86.1c0,0.8-0.3,1.4-0.8,2c-0.6,0.6-1.4,0.8-2.4,0.8s-1.8-0.3-2.4-0.8c-0.5-0.6-0.8-1.2-0.8-2v-5.8h0.8
			V86c0,0.6,0.2,1.1,0.6,1.6c0.4,0.4,1,0.7,1.8,0.7s1.4-0.2,1.8-0.7c0.4-0.4,0.6-1,0.6-1.6v-5.7h0.8L207.3,86.1L207.3,86.1z"/>
		<path class="st6" d="M213.8,88.7v-8.4h0.8V88h4.8v0.7H213.8z"/>
		<path class="st6" d="M229.6,81v7.7h-0.8V81h-2.9v-0.7h6.6V81H229.6z"/>
		<path class="st6" d="M245.3,86.1c0,0.8-0.3,1.4-0.8,2c-0.6,0.6-1.4,0.8-2.4,0.8s-1.8-0.3-2.4-0.8c-0.5-0.6-0.8-1.2-0.8-2v-5.8h0.8
			V86c0,0.6,0.2,1.1,0.6,1.6c0.4,0.4,1,0.7,1.8,0.7s1.4-0.2,1.8-0.7c0.4-0.4,0.6-1,0.6-1.6v-5.7h0.8L245.3,86.1L245.3,86.1z"/>
		<path class="st6" d="M257.7,88.7l-2.4-3.5h-2.6v3.5h-0.8v-8.4h3.6c0.8,0,1.5,0.2,2,0.7s0.8,1,0.8,1.7c0,0.6-0.2,1.1-0.6,1.5
			s-0.9,0.7-1.4,0.8l2.5,3.6h-1.1V88.7z M256.7,84c0.4-0.3,0.6-0.7,0.6-1.3c0-0.6-0.2-1.1-0.6-1.3c-0.4-0.3-0.8-0.4-1.3-0.4h-2.8
			v3.4h2.7C255.8,84.4,256.3,84.3,256.7,84z"/>
		<path class="st6" d="M272.3,88.7l-1-2.3h-4.4l-1,2.3H265l3.5-8.4h0.9l3.5,8.4H272.3z M269.1,81.2l-1.9,4.6h3.8L269.1,81.2z"/>
		<path class="st6" d="M279.6,88.7v-8.4h0.8V88h4.8v0.7H279.6z"/>
		<path class="st6" d="M299.8,81v3.1h4.4v0.7h-4.4v3.8H299v-8.4h5.8V81H299.8z"/>
		<path class="st6" d="M317.9,81.3c0.7,0.8,1,1.9,1,3.2c0,1.3-0.3,2.4-1,3.2c-0.7,0.8-1.6,1.2-2.8,1.2s-2.1-0.4-2.8-1.2
			c-0.7-0.8-1-1.9-1-3.2c0-1.3,0.3-2.4,1-3.2c0.7-0.8,1.6-1.2,2.8-1.2S317.2,80.5,317.9,81.3z M317.3,87.2c0.5-0.7,0.8-1.6,0.8-2.7
			s-0.3-1.9-0.8-2.6s-1.3-1-2.2-1c-0.9,0-1.6,0.3-2.1,1s-0.8,1.6-0.8,2.6c0,1.1,0.3,2,0.8,2.7s1.3,1,2.1,1
			C316,88.2,316.7,87.9,317.3,87.2z"/>
		<path class="st6" d="M331.8,86.1c0,0.8-0.3,1.4-0.8,2c-0.6,0.6-1.3,0.8-2.4,0.8c-1,0-1.8-0.3-2.4-0.8c-0.5-0.6-0.8-1.2-0.8-2v-5.8
			h0.8V86c0,0.6,0.2,1.1,0.6,1.6c0.4,0.4,1,0.7,1.8,0.7s1.4-0.2,1.8-0.7c0.4-0.4,0.6-1,0.6-1.6v-5.7h0.8V86.1z"/>
		<path class="st6" d="M343.9,88.7l-4.7-7.3v7.2h-0.8v-8.4h0.9l4.8,7.3v-7.3h0.8v8.4h-1V88.7z"/>
		<path class="st6" d="M357,81.5c0.7,0.8,1.1,1.8,1.1,3s-0.4,2.2-1.1,3s-1.7,1.2-2.9,1.2h-2.8v-8.4h2.8
			C355.3,80.3,356.3,80.7,357,81.5z M356.3,87c0.5-0.7,0.8-1.5,0.8-2.5s-0.3-1.8-0.8-2.5s-1.3-1-2.4-1h-1.8v7h1.8
			C355,88,355.8,87.7,356.3,87z"/>
		<path class="st6" d="M371.7,88.7l-1-2.3h-4.4l-1,2.3h-0.9l3.5-8.4h0.9l3.5,8.4H371.7z M368.5,81.2l-1.9,4.6h3.8L368.5,81.2z"/>
		<path class="st6" d="M382.7,81v7.7h-0.8V81H379v-0.7h6.6V81H382.7z"/>
		<path class="st6" d="M392.1,88.7v-8.4h0.8v8.4H392.1z"/>
		<path class="st6" d="M405.9,81.3c0.7,0.8,1,1.9,1,3.2c0,1.3-0.3,2.4-1,3.2c-0.7,0.8-1.6,1.2-2.8,1.2s-2.1-0.4-2.8-1.2
			c-0.7-0.8-1-1.9-1-3.2c0-1.3,0.3-2.4,1-3.2c0.7-0.8,1.6-1.2,2.8-1.2S405.2,80.5,405.9,81.3z M405.3,87.2c0.5-0.7,0.8-1.6,0.8-2.7
			s-0.3-1.9-0.8-2.6s-1.3-1-2.2-1c-0.9,0-1.6,0.3-2.1,1s-0.8,1.6-0.8,2.6c0,1.1,0.3,2,0.8,2.7s1.3,1,2.1,1
			C404,88.2,404.8,87.9,405.3,87.2z"/>
		<path class="st6" d="M419,88.7l-4.7-7.3v7.2h-0.8v-8.4h0.9l4.8,7.3v-7.3h0.8v8.4h-1V88.7z"/>
	</g>
	<g>
		<linearGradient id="SVGID_8_" gradientUnits="userSpaceOnUse" x1="146.8206" y1="-34.1688" x2="128.0675" y2="72.1858">
			<stop  offset="7.300000e-02" style="stop-color:#3A60AC"/>
			<stop  offset="0.2178" style="stop-color:#385CA2"/>
			<stop  offset="0.4879" style="stop-color:#315185"/>
			<stop  offset="0.851" style="stop-color:#223E58"/>
			<stop  offset="1" style="stop-color:#1B3545"/>
		</linearGradient>
		<path class="st7" d="M128.2,18.4c-6.3,0-7.7,2-9.4,6.7l-6.6,17.6h6.5c1.8,0,3.3-1.1,3.9-2.7l4.6-12.6c0.4-1.1,0.9-1.8,2.6-1.8h6.9
			c1.6,0,2.2,0.7,2.6,1.8l4.6,12.6c0.6,1.6,2.2,2.7,3.9,2.7h6.5l-6.6-17.6c-1.8-4.7-3.1-6.7-9.4-6.7h-0.5c-0.1-2.4-2.1-4.4-4.6-4.4
			h-4.6v4.4H128.2z"/>
		<linearGradient id="SVGID_9_" gradientUnits="userSpaceOnUse" x1="147.8042" y1="-33.9954" x2="129.051" y2="72.3592">
			<stop  offset="7.300000e-02" style="stop-color:#3A60AC"/>
			<stop  offset="0.2178" style="stop-color:#385CA2"/>
			<stop  offset="0.4879" style="stop-color:#315185"/>
			<stop  offset="0.851" style="stop-color:#223E58"/>
			<stop  offset="1" style="stop-color:#1B3545"/>
		</linearGradient>
		<path class="st8" d="M113.6,52h14.9v11.3c0,2.7,2.2,4.8,4.8,4.8h4.8v-4.8V52H153h3.6v-3.6c0-2-1.6-3.6-3.6-3.6h-39.4H110v3.6
			C110,50.4,111.6,52,113.6,52z"/>
		<linearGradient id="SVGID_10_" gradientUnits="userSpaceOnUse" x1="189.3002" y1="-26.6785" x2="170.547" y2="79.676">
			<stop  offset="7.300000e-02" style="stop-color:#3A60AC"/>
			<stop  offset="0.2178" style="stop-color:#385CA2"/>
			<stop  offset="0.4879" style="stop-color:#315185"/>
			<stop  offset="0.851" style="stop-color:#223E58"/>
			<stop  offset="1" style="stop-color:#1B3545"/>
		</linearGradient>
		<path class="st9" d="M170.2,18.4c-3.9,0-7.1,3.2-7.1,7.1v5.1c0,3.9,3.2,7.1,7.1,7.1h18.8c3.9,0,7.1-3.2,7.1-7.1v-5.1
			c0-3.9-3.2-7.1-7.1-7.1h-4.8c-0.1-2.4-2.1-4.4-4.6-4.4h-4.6v4.4H170.2z M184.9,25.5c0.9,0,1.7,0.7,1.7,1.7v1.7
			c0,0.9-0.7,1.7-1.7,1.7h-10.4c-0.9,0-1.7-0.7-1.7-1.7v-1.7c0-0.9,0.7-1.7,1.7-1.7H184.9z"/>
		<linearGradient id="SVGID_11_" gradientUnits="userSpaceOnUse" x1="190.8389" y1="-26.4072" x2="172.0857" y2="79.9474">
			<stop  offset="7.300000e-02" style="stop-color:#3A60AC"/>
			<stop  offset="0.2178" style="stop-color:#385CA2"/>
			<stop  offset="0.4879" style="stop-color:#315185"/>
			<stop  offset="0.851" style="stop-color:#223E58"/>
			<stop  offset="1" style="stop-color:#1B3545"/>
		</linearGradient>
		<path class="st10" d="M170.8,46.6h0.9h2h2.2v4.5c0,2.7,2.2,4.8,4.8,4.8h4.8v-4.8v-4.5h2h5.2h3.4v-3.4c0-1.9-1.5-3.4-3.4-3.4h-28.5
			c0,0,0,0,0,0s0,0,0,0h-3.4v3.4c0,1.9,1.5,3.4,3.4,3.4H170.8z"/>
		<linearGradient id="SVGID_12_" gradientUnits="userSpaceOnUse" x1="211.8996" y1="-22.6937" x2="193.1464" y2="83.6609">
			<stop  offset="7.300000e-02" style="stop-color:#3A60AC"/>
			<stop  offset="0.2178" style="stop-color:#385CA2"/>
			<stop  offset="0.4879" style="stop-color:#315185"/>
			<stop  offset="0.851" style="stop-color:#223E58"/>
			<stop  offset="1" style="stop-color:#1B3545"/>
		</linearGradient>
		<path class="st11" d="M202.9,18.4h-4.5v4.5v16.2v7.4v1.2v1.2v0.5h-5.9h-3.3v3.3c0,1.8,1.5,3.3,3.3,3.3h0.7h5.2h0.4
			c0.7,1.6,2.3,2.8,4.2,2.8h4.5v-4.5V22.9C207.5,20.4,205.5,18.4,202.9,18.4z"/>
		<linearGradient id="SVGID_13_" gradientUnits="userSpaceOnUse" x1="199.9901" y1="-24.7936" x2="181.237" y2="81.561">
			<stop  offset="7.300000e-02" style="stop-color:#3A60AC"/>
			<stop  offset="0.2178" style="stop-color:#385CA2"/>
			<stop  offset="0.4879" style="stop-color:#315185"/>
			<stop  offset="0.851" style="stop-color:#223E58"/>
			<stop  offset="1" style="stop-color:#1B3545"/>
		</linearGradient>
		<path class="st12" d="M203.9,60.9h-31.7v-7.5c0-2.5-2-4.5-4.5-4.5h-4.5v4.5v10.1c0,2.5,2,4.5,4.5,4.5h36.2h3.6v-3.6
			C207.5,62.5,205.9,60.9,203.9,60.9z"/>
		<linearGradient id="SVGID_14_" gradientUnits="userSpaceOnUse" x1="243.1227" y1="-17.1882" x2="224.3696" y2="89.1664">
			<stop  offset="7.300000e-02" style="stop-color:#3A60AC"/>
			<stop  offset="0.2178" style="stop-color:#385CA2"/>
			<stop  offset="0.4879" style="stop-color:#315185"/>
			<stop  offset="0.851" style="stop-color:#223E58"/>
			<stop  offset="1" style="stop-color:#1B3545"/>
		</linearGradient>
		<path class="st13" d="M218.6,37.7h4.5h24h9.1v-7.1v-5.1v-2.6c0-2.5-2-4.5-4.5-4.5h-4.5h-24h-9.1v7.1v5.1v2.6
			C214.1,35.7,216.1,37.7,218.6,37.7z M223.2,25.5h24v5.1h-24V25.5z"/>
		<linearGradient id="SVGID_15_" gradientUnits="userSpaceOnUse" x1="245.7243" y1="-16.7295" x2="226.9711" y2="89.6251">
			<stop  offset="7.300000e-02" style="stop-color:#3A60AC"/>
			<stop  offset="0.2178" style="stop-color:#385CA2"/>
			<stop  offset="0.4879" style="stop-color:#315185"/>
			<stop  offset="0.851" style="stop-color:#223E58"/>
			<stop  offset="1" style="stop-color:#1B3545"/>
		</linearGradient>
		<path class="st14" d="M255.1,39.9h-39.8h-3.4v3.4c0,1.9,1.5,3.4,3.4,3.4h15.3v4.1c0,2.5,2.1,4.6,4.6,4.6h4.6v-4.6v-4.1h15.3h3.4
			v-3.4C258.4,41.4,256.9,39.9,255.1,39.9z"/>
		<linearGradient id="SVGID_16_" gradientUnits="userSpaceOnUse" x1="248.3209" y1="-16.2716" x2="229.5677" y2="90.083">
			<stop  offset="7.300000e-02" style="stop-color:#3A60AC"/>
			<stop  offset="0.2178" style="stop-color:#385CA2"/>
			<stop  offset="0.4879" style="stop-color:#315185"/>
			<stop  offset="0.851" style="stop-color:#223E58"/>
			<stop  offset="1" style="stop-color:#1B3545"/>
		</linearGradient>
		<path class="st15" d="M252.6,60.8h-29.5v-7.5c0-2.5-2-4.5-4.5-4.5h-4.5v4.5v10.2c0,2.5,2,4.5,4.5,4.5h34h3.6v-3.6
			C256.2,62.4,254.6,60.8,252.6,60.8z"/>
		<linearGradient id="SVGID_17_" gradientUnits="userSpaceOnUse" x1="295.4588" y1="-7.9599" x2="276.7056" y2="98.3947">
			<stop  offset="7.300000e-02" style="stop-color:#3A60AC"/>
			<stop  offset="0.2178" style="stop-color:#385CA2"/>
			<stop  offset="0.4879" style="stop-color:#315185"/>
			<stop  offset="0.851" style="stop-color:#223E58"/>
			<stop  offset="1" style="stop-color:#1B3545"/>
		</linearGradient>
		<path class="st16" d="M275.4,18.4h-12.6V22c0,2,1.6,3.6,3.6,3.6h1.9c-0.6,1-1,2.2-1,3.5v19.1c0,3.9,3.2,7.1,7.1,7.1h1.3v5.6h-9.4
			h-3.6v3.6c0,2,1.6,3.6,3.6,3.6h38.4h0.9h3.6v-3.6v-0.9v-8.8v-7.6h0.4h3.9v-3.9c0-2.2-1.8-3.9-3.9-3.9h-0.4V35v-3.9v-8.2
			c0-2.5-2-4.5-4.5-4.5h-4.5v4.5v37.9h-15.2v-5.6h1.6c3.9,0,7.1-3.2,7.1-7.1V29.1c0-1.3-0.4-2.5-1-3.5h1.7h3.6V22
			c0-2-1.6-3.6-3.6-3.6H285h0c-0.1-2.4-2.1-4.4-4.6-4.4h-4.6v4.4H275.4z M277,27.3c0-0.9,0.7-1.7,1.7-1.7h3.7c0.9,0,1.7,0.7,1.7,1.7
			v19.2c0,0.9-0.7,1.7-1.7,1.7h-3.7c-0.9,0-1.7-0.7-1.7-1.7V27.3z"/>
		<linearGradient id="SVGID_18_" gradientUnits="userSpaceOnUse" x1="361.4661" y1="3.6789" x2="342.7129" y2="110.0335">
			<stop  offset="7.300000e-02" style="stop-color:#3A60AC"/>
			<stop  offset="0.2178" style="stop-color:#385CA2"/>
			<stop  offset="0.4879" style="stop-color:#315185"/>
			<stop  offset="0.851" style="stop-color:#223E58"/>
			<stop  offset="1" style="stop-color:#1B3545"/>
		</linearGradient>
		<path class="st17" d="M360.1,18.4h-4.5v4.5v16.3h-2.2V22.9c0-2.5-2-4.5-4.5-4.5h-4.5v4.5v40.6c0,2.5,2,4.5,4.5,4.5h4.5v-4.5V47.2
			h2.2v16.3c0,2.5,2,4.5,4.5,4.5h4.5v-4.5V22.9C364.7,20.4,362.6,18.4,360.1,18.4z"/>
		<linearGradient id="SVGID_19_" gradientUnits="userSpaceOnUse" x1="391.9156" y1="9.048" x2="373.1624" y2="115.4026">
			<stop  offset="7.300000e-02" style="stop-color:#3A60AC"/>
			<stop  offset="0.2178" style="stop-color:#385CA2"/>
			<stop  offset="0.4879" style="stop-color:#315185"/>
			<stop  offset="0.851" style="stop-color:#223E58"/>
			<stop  offset="1" style="stop-color:#1B3545"/>
		</linearGradient>
		<path class="st18" d="M380.3,46.6h20.6h3.4v-3.4c0-1.9-1.5-3.4-3.4-3.4h-20.6V25.1h20.6h3.4v-3.4c0-1.9-1.5-3.4-3.4-3.4h-20.6
			h-9.1v6.7v14.8v2.2c0,2.5,2,4.5,4.5,4.5H380.3z"/>
		<linearGradient id="SVGID_20_" gradientUnits="userSpaceOnUse" x1="416.2749" y1="13.3432" x2="397.5217" y2="119.6978">
			<stop  offset="7.300000e-02" style="stop-color:#3A60AC"/>
			<stop  offset="0.2178" style="stop-color:#385CA2"/>
			<stop  offset="0.4879" style="stop-color:#315185"/>
			<stop  offset="0.851" style="stop-color:#223E58"/>
			<stop  offset="1" style="stop-color:#1B3545"/>
		</linearGradient>
		<path class="st19" d="M416.1,34.6h-0.4V22.9c0-2.5-2-4.5-4.5-4.5h-4.5v4.5v31.2c0,2.5,2,4.5,4.5,4.5h4.5v-4.5V42.5h0.4h3.9v-3.9
			C420,36.4,418.2,34.6,416.1,34.6z"/>
		<linearGradient id="SVGID_21_" gradientUnits="userSpaceOnUse" x1="402.9179" y1="10.988" x2="384.1648" y2="117.3426">
			<stop  offset="7.300000e-02" style="stop-color:#3A60AC"/>
			<stop  offset="0.2178" style="stop-color:#385CA2"/>
			<stop  offset="0.4879" style="stop-color:#315185"/>
			<stop  offset="0.851" style="stop-color:#223E58"/>
			<stop  offset="1" style="stop-color:#1B3545"/>
		</linearGradient>
		<path class="st20" d="M382.6,53.4c0-2.5-2-4.5-4.5-4.5h-4.5v4.5v10.1c0,2.5,2,4.5,4.5,4.5h34h3.6v-3.6c0-2-1.6-3.6-3.6-3.6h-3.3
			h-26.2V53.4z"/>
		<linearGradient id="SVGID_22_" gradientUnits="userSpaceOnUse" x1="337.8289" y1="-0.489" x2="319.0757" y2="105.8656">
			<stop  offset="7.300000e-02" style="stop-color:#3A60AC"/>
			<stop  offset="0.2178" style="stop-color:#385CA2"/>
			<stop  offset="0.4879" style="stop-color:#315185"/>
			<stop  offset="0.851" style="stop-color:#223E58"/>
			<stop  offset="1" style="stop-color:#1B3545"/>
		</linearGradient>
		<path class="st21" d="M338.6,18.4h-16.9h-3.6v3.6c0,2,1.6,3.6,3.6,3.6h3.9v14.2c-2.8,0-5.2,2.2-5.4,5l-0.2,2.1l-1.8,21.3h4.4
			c2.2,0,4-1.7,4.2-3.8l1.3-16.7c0-0.4,0.4-0.8,0.8-0.8h2.5c0.4,0,0.8,0.3,0.8,0.8l1.3,16.7c0.2,2.2,2,3.8,4.2,3.8h4.4l-1.8-21.3
			l-0.2-2.1c-0.2-2.8-2.6-5-5.4-5V25.5h3.9h3.6v-3.6C342.1,20,340.5,18.4,338.6,18.4z"/>
	</g>
</g>
</svg>
