<?xml version="1.0" encoding="utf-8"?>
<!-- Generator: Adobe Illustrator 26.0.0, SVG Export Plug-In . SVG Version: 6.00 Build 0)  -->
<svg version="1.1" id="레이어_1" xmlns="http://www.w3.org/2000/svg" xmlns:xlink="http://www.w3.org/1999/xlink" x="0px"
	 y="0px" viewBox="0 0 420 100" style="enable-background:new 0 0 420 100;" xml:space="preserve">
<style type="text/css">
	.st0{clip-path:url(#SVGID_00000081610761086920171890000013803672533918739337_);}
	.st1{fill:url(#SVGID_00000035519497574900716250000012814733274232416150_);}
	.st2{fill:url(#SVGID_00000021115980846368018160000013364222652676573875_);}
	.st3{fill:url(#SVGID_00000170268298445560201380000002104073578224080527_);}
	.st4{fill:url(#SVGID_00000155132261053145747290000005116039030667461310_);}
	.st5{fill:url(#SVGID_00000062879513301692792110000013305952873171029129_);}
	.st6{fill:#B5B5B5;}
	.st7{fill:url(#SVGID_00000170999418602146251380000004003273687878455741_);}
	.st8{fill:url(#SVGID_00000170274814005339527530000016220027117811749273_);}
	.st9{fill:url(#SVGID_00000068653855404994425550000003913513416224589220_);}
	.st10{fill:url(#SVGID_00000075162249101929446410000004820861124652300448_);}
	.st11{fill:url(#SVGID_00000127040966719884934460000013681604924260739728_);}
	.st12{fill:url(#SVGID_00000169551476287140210820000004544617486619237554_);}
	.st13{fill:url(#SVGID_00000018952728150143358810000002797233735114606250_);}
	.st14{fill:url(#SVGID_00000019676776082956036000000016738269826635234985_);}
	.st15{fill:url(#SVGID_00000100361295761381490840000012942550102548008090_);}
	.st16{fill:url(#SVGID_00000183223660961652054050000011762660308260738707_);}
	.st17{fill:url(#SVGID_00000169534911252942809200000004111514070203480983_);}
	.st18{fill:url(#SVGID_00000010289519295042567140000015163396923377184679_);}
	.st19{fill:url(#SVGID_00000165942634972886443640000002892019139150400912_);}
	.st20{fill:url(#SVGID_00000137101194619916552110000003879915596494510470_);}
	.st21{fill:url(#SVGID_00000077312045695254410360000012586086409605124792_);}
</style>
<g>
	<g>
		<g>
			<g>
				<g>
					<g>
						<defs>
							<path id="SVGID_1_" d="M61.3,70.1v19.4c0,0,15.1-3.6,30.5-0.2L86.9,59l-7.2-4l-0.9-9.6c0.8-0.3,9.8-4,12.7-5.3
								c2.3-1,4-1.7,4-1.7c2.6-1.4,0-2.8,0-2.8c-0.7-0.2-1.4-0.3-2.1-0.5c-0.6-0.2-1.3-0.3-1.9-0.5c-3.6-1-6.9-2.1-10.1-3.4
								c-3.7-1.5-7-3.1-10.1-4.8c-1.7-1-3.3-1.9-4.8-2.9l0,0c-1.9-1.2-3.6-2.5-5.3-3.7c-3.5-2.7-6.4-5.4-8.7-7.9l0,0
								c-0.5-0.5-0.9-1-1.3-1.4c-4.5-5-6.5-8.7-6.5-8.7c-1.9-3.4-3.4,0-3.4,0c-0.1,0.1-0.1,0.2-0.2,0.3C38.5,6,35.7,9.2,32.7,12l0,0
								c-0.6,0.5-1.1,1-1.7,1.5c-3.4,2.9-6.8,5.1-10.1,6.9c-2.6,1.4-5,2.4-7.3,3.2c-1,0.3-1.9,0.7-2.8,0.9c-5.1,1.6-8.8,1.9-9.3,2
								c0,0-1.5,0.3-0.8,2.1c0.7,1.7,5.3,4.3,9.7,6.6c0.1,0.1,8.8,4.1,8.8,4.1l-0.7,10.2L6.6,53.6L0,100c0,0,17.9-0.1,30.9-4.7
								l0.2-25.2c0,0,0-11.7,10.1-11.7h10.1C61.3,58.4,61.3,70.1,61.3,70.1"/>
						</defs>
						<clipPath id="SVGID_00000130628115969799098620000004386533121437252225_">
							<use xlink:href="#SVGID_1_"  style="overflow:visible;"/>
						</clipPath>
						<g style="clip-path:url(#SVGID_00000130628115969799098620000004386533121437252225_);">
							
								<linearGradient id="SVGID_00000141428276237810469270000012977499445799608964_" gradientUnits="userSpaceOnUse" x1="-219.3269" y1="1072.5583" x2="-222.8665" y2="1094.0404" gradientTransform="matrix(0.9953 -0.0971 0.0971 0.9953 154.5874 -1088.8256)">
								<stop  offset="0.073" style="stop-color:#5D5D5D"/>
								<stop  offset="0.2178" style="stop-color:#595959"/>
								<stop  offset="0.4879" style="stop-color:#4D4D4D"/>
								<stop  offset="0.851" style="stop-color:#383838"/>
								<stop  offset="1" style="stop-color:#2F2F2F"/>
							</linearGradient>
							<path style="fill:url(#SVGID_00000141428276237810469270000012977499445799608964_);" d="M38.6,25.9
								C55,22.3,76.5,25,84.8,23.5c-11.5-9.3-32.1-26-47.9-24.4C18.7,1,1.9,16-7.5,30.5C-0.2,30.1,20.5,29.9,38.6,25.9z"/>
							
								<linearGradient id="SVGID_00000181071985878848710630000002155435049197158038_" gradientUnits="userSpaceOnUse" x1="-221.4846" y1="1095.453" x2="-224.3473" y2="1114.9163" gradientTransform="matrix(0.9953 -0.0971 0.0971 0.9953 154.5874 -1088.8256)">
								<stop  offset="0.0182" style="stop-color:#676767"/>
								<stop  offset="0.2769" style="stop-color:#545454"/>
								<stop  offset="0.8415" style="stop-color:#2C2C2C"/>
								<stop  offset="0.9152" style="stop-color:#272727"/>
							</linearGradient>
							<path style="fill:url(#SVGID_00000181071985878848710630000002155435049197158038_);" d="M46.4,43
								c23.7-4.3,39.8-10.7,47.5-13.4c-3.7-6.9-1.8-6.1-7.7-10.9c-8.6,0-31.6,4.3-48.4,5.1c-18,0.9-36.8-3.4-44.1-3
								c-3.5,5.4-6.2,16.3-7.9,22.7C-6.6,44.4,18.3,48,46.4,43z"/>
							
								<linearGradient id="SVGID_00000155850924573230834010000011460385237153623724_" gradientUnits="userSpaceOnUse" x1="-219.6865" y1="1107.0343" x2="-225.6396" y2="1143.806" gradientTransform="matrix(0.9953 -0.0971 0.0971 0.9953 154.5874 -1088.8256)">
								<stop  offset="0.073" style="stop-color:#7D7D7D"/>
								<stop  offset="0.4329" style="stop-color:#595959"/>
								<stop  offset="0.8214" style="stop-color:#373737"/>
								<stop  offset="1" style="stop-color:#2B2B2B"/>
							</linearGradient>
							<path style="fill:url(#SVGID_00000155850924573230834010000011460385237153623724_);" d="M100.7,50.5
								c-1-7.6-1.4-15.5-4.9-21.8c-7.7,2.7-28,9.1-51.7,13.3C16,47.1-6.6,44.4-14.3,43.5c-1.8,6.8-2.4,14-1.8,21.3
								c0.5,4.9,1.5,13,3,17.4c10.9-1.3,46-5,64.1-16.1C66.2,56.8,90.7,53.1,100.7,50.5z"/>
							
								<linearGradient id="SVGID_00000165218777949134331920000007015839375042395301_" gradientUnits="userSpaceOnUse" x1="-223.237" y1="1124.6842" x2="-221.1749" y2="1158.7087" gradientTransform="matrix(0.9953 -0.0971 0.0971 0.9953 154.5874 -1088.8256)">
								<stop  offset="0.073" style="stop-color:#D0D0D0"/>
								<stop  offset="0.4626" style="stop-color:#A3A3A3"/>
								<stop  offset="1" style="stop-color:#5B5B5B"/>
							</linearGradient>
							<path style="fill:url(#SVGID_00000165218777949134331920000007015839375042395301_);" d="M100.7,50.5
								c-15.4-0.1-46.5,11.9-60.8,18C22.1,76-2.1,81-13,82.2c1.7,4.9,3.9,6.1,6.7,10.3c8.8-0.4,29-2,44.3-6.8
								c19.2-6.1,45.2-9.8,61.2-11.6c1.8-6.7,2.4-13.9,1.7-21.3C100.9,52.1,100.8,51.3,100.7,50.5z"/>
							
								<linearGradient id="SVGID_00000058567210798940812450000004366883001260140220_" gradientUnits="userSpaceOnUse" x1="-223.7188" y1="1144.5453" x2="-218.0845" y2="1173.5211" gradientTransform="matrix(0.9953 -0.0971 0.0971 0.9953 154.5874 -1088.8256)">
								<stop  offset="0.0393" style="stop-color:#EBEBEB"/>
								<stop  offset="0.3653" style="stop-color:#D2D2D2"/>
								<stop  offset="0.9888" style="stop-color:#9A9A9A"/>
							</linearGradient>
							<path style="fill:url(#SVGID_00000058567210798940812450000004366883001260140220_);" d="M-6.4,92.5c3,4.5,6.5,8.5,10.4,11.9
								c10.5-1.2,38.3-4.7,60.6-11.5c16.1-4.9,24.3-1,29.5-2.2c1.5-3.3,4.1-13,5.1-16.6C77.8,71.8,66.3,76.7,38,85.7
								C22.6,90.5,2.5,92.1-6.4,92.5z"/>
						</g>
					</g>
				</g>
			</g>
		</g>
	</g>
	<g>
		<path class="st6" d="M116.2,85.3c0.3,0.4,0.4,0.8,0.3,1.3c-0.1,0.6-0.4,1.2-0.9,1.6c-0.5,0.5-1.3,0.7-2.3,0.7
			c-1.1,0-1.9-0.3-2.5-0.9s-0.8-1.3-0.8-2.1h0.8c0,0.8,0.2,1.3,0.7,1.7c0.5,0.4,1.1,0.6,1.8,0.6c0.6,0,1.2-0.1,1.6-0.4
			s0.7-0.7,0.8-1.2c0.1-0.4,0-0.7-0.2-0.9s-0.5-0.5-0.9-0.6c-0.4-0.2-0.8-0.3-1.3-0.3c-0.5-0.1-0.9-0.2-1.3-0.3
			c-0.6-0.2-1-0.5-1.3-0.8s-0.4-0.8-0.4-1.3s0.3-1.1,0.8-1.6s1.2-0.8,2.2-0.8c1.2,0,2,0.3,2.4,1s0.6,1.2,0.6,1.7h-0.8
			c0-0.5-0.2-1-0.6-1.4s-0.9-0.6-1.6-0.6c-0.6,0-1.1,0.2-1.5,0.5s-0.6,0.7-0.6,1.1s0.1,0.8,0.4,1s0.6,0.4,0.9,0.5s0.7,0.2,1.2,0.3
			c0.5,0.1,1,0.2,1.4,0.4C115.5,84.6,115.9,84.9,116.2,85.3z"/>
		<path class="st6" d="M129.4,86.1c0,0.8-0.3,1.4-0.8,2c-0.6,0.6-1.4,0.8-2.4,0.8s-1.8-0.3-2.4-0.8c-0.5-0.6-0.8-1.2-0.8-2v-5.8h0.8
			V86c0,0.6,0.2,1.1,0.6,1.6c0.4,0.4,1,0.7,1.8,0.7s1.4-0.2,1.8-0.7c0.4-0.4,0.6-1,0.6-1.6v-5.7h0.8V86.1z"/>
		<path class="st6" d="M143.8,88.7H143l-2-7.2l-2,7.2h-0.9l-2.3-8.5h0.8l1.9,7.2l1.9-7.2h1l1.9,7.2l1.9-7.2h0.8L143.8,88.7z"/>
		<path class="st6" d="M159.2,81.3c0.7,0.8,1,1.9,1,3.2c0,1.3-0.3,2.4-1,3.2c-0.7,0.8-1.6,1.2-2.8,1.2s-2.1-0.4-2.8-1.2
			c-0.7-0.8-1-1.9-1-3.2c0-1.3,0.3-2.4,1-3.2s1.6-1.2,2.8-1.2C157.6,80.1,158.5,80.5,159.2,81.3z M158.6,87.2
			c0.5-0.7,0.8-1.6,0.8-2.7s-0.3-1.9-0.8-2.6s-1.3-1-2.2-1s-1.6,0.3-2.1,1s-0.8,1.6-0.8,2.6c0,1.1,0.3,2,0.8,2.7s1.3,1,2.1,1
			C157.3,88.2,158.1,87.9,158.6,87.2z"/>
		<path class="st6" d="M172.3,88.7l-4.7-7.3v7.2h-0.8v-8.4h0.9l4.8,7.3v-7.3h0.8v8.4h-1V88.7z"/>
		<path class="st6" d="M193.5,82.7c-0.1-0.4-0.4-0.8-0.8-1.3c-0.4-0.4-1-0.6-1.8-0.6c-0.9,0-1.6,0.3-2.1,1s-0.8,1.6-0.8,2.6
			c0,1.1,0.3,2,0.8,2.7s1.2,1,2.1,1c0.8,0,1.4-0.2,1.8-0.7c0.4-0.4,0.7-0.9,0.8-1.3h0.9c-0.1,0.5-0.5,1.1-1,1.8
			c-0.6,0.6-1.4,1-2.5,1c-1.2,0-2.1-0.4-2.8-1.2c-0.7-0.8-1-1.9-1-3.2c0-1.3,0.3-2.4,1-3.2c0.7-0.8,1.6-1.2,2.8-1.2
			c1.1,0,1.9,0.3,2.5,0.9s0.9,1.2,1,1.7C194.4,82.7,193.5,82.7,193.5,82.7z"/>
		<path class="st6" d="M207.3,86.1c0,0.8-0.3,1.4-0.8,2c-0.6,0.6-1.4,0.8-2.4,0.8s-1.8-0.3-2.4-0.8c-0.5-0.6-0.8-1.2-0.8-2v-5.8h0.8
			V86c0,0.6,0.2,1.1,0.6,1.6c0.4,0.4,1,0.7,1.8,0.7s1.4-0.2,1.8-0.7c0.4-0.4,0.6-1,0.6-1.6v-5.7h0.8L207.3,86.1L207.3,86.1z"/>
		<path class="st6" d="M213.8,88.7v-8.4h0.8V88h4.8v0.7H213.8z"/>
		<path class="st6" d="M229.6,81v7.7h-0.8V81h-2.9v-0.7h6.6V81H229.6z"/>
		<path class="st6" d="M245.3,86.1c0,0.8-0.3,1.4-0.8,2c-0.6,0.6-1.4,0.8-2.4,0.8s-1.8-0.3-2.4-0.8c-0.5-0.6-0.8-1.2-0.8-2v-5.8h0.8
			V86c0,0.6,0.2,1.1,0.6,1.6c0.4,0.4,1,0.7,1.8,0.7s1.4-0.2,1.8-0.7c0.4-0.4,0.6-1,0.6-1.6v-5.7h0.8L245.3,86.1L245.3,86.1z"/>
		<path class="st6" d="M257.7,88.7l-2.4-3.5h-2.6v3.5h-0.8v-8.4h3.6c0.8,0,1.5,0.2,2,0.7s0.8,1,0.8,1.7c0,0.6-0.2,1.1-0.6,1.5
			s-0.9,0.7-1.4,0.8l2.5,3.6h-1.1L257.7,88.7L257.7,88.7z M256.7,84c0.4-0.3,0.6-0.7,0.6-1.3c0-0.6-0.2-1.1-0.6-1.3
			c-0.4-0.3-0.8-0.4-1.3-0.4h-2.8v3.4h2.7C255.8,84.4,256.3,84.3,256.7,84z"/>
		<path class="st6" d="M272.3,88.7l-1-2.3h-4.4l-1,2.3H265l3.5-8.4h0.9l3.5,8.4H272.3z M269.1,81.2l-1.9,4.6h3.8L269.1,81.2z"/>
		<path class="st6" d="M279.6,88.7v-8.4h0.8V88h4.8v0.7H279.6z"/>
		<path class="st6" d="M299.8,81v3.1h4.4v0.7h-4.4v3.8H299v-8.4h5.8V81H299.8z"/>
		<path class="st6" d="M317.9,81.3c0.7,0.8,1,1.9,1,3.2c0,1.3-0.3,2.4-1,3.2c-0.7,0.8-1.6,1.2-2.8,1.2s-2.1-0.4-2.8-1.2
			c-0.7-0.8-1-1.9-1-3.2c0-1.3,0.3-2.4,1-3.2c0.7-0.8,1.6-1.2,2.8-1.2S317.2,80.5,317.9,81.3z M317.3,87.2c0.5-0.7,0.8-1.6,0.8-2.7
			s-0.3-1.9-0.8-2.6s-1.3-1-2.2-1c-0.9,0-1.6,0.3-2.1,1s-0.8,1.6-0.8,2.6c0,1.1,0.3,2,0.8,2.7s1.3,1,2.1,1
			C316,88.2,316.7,87.9,317.3,87.2z"/>
		<path class="st6" d="M331.8,86.1c0,0.8-0.3,1.4-0.8,2c-0.6,0.6-1.3,0.8-2.4,0.8c-1,0-1.8-0.3-2.4-0.8c-0.5-0.6-0.8-1.2-0.8-2v-5.8
			h0.8V86c0,0.6,0.2,1.1,0.6,1.6c0.4,0.4,1,0.7,1.8,0.7s1.4-0.2,1.8-0.7c0.4-0.4,0.6-1,0.6-1.6v-5.7h0.8V86.1z"/>
		<path class="st6" d="M343.9,88.7l-4.7-7.3v7.2h-0.8v-8.4h0.9l4.8,7.3v-7.3h0.8v8.4h-1L343.9,88.7L343.9,88.7z"/>
		<path class="st6" d="M357,81.5c0.7,0.8,1.1,1.8,1.1,3s-0.4,2.2-1.1,3s-1.7,1.2-2.9,1.2h-2.8v-8.4h2.8
			C355.3,80.3,356.3,80.7,357,81.5z M356.3,87c0.5-0.7,0.8-1.5,0.8-2.5s-0.3-1.8-0.8-2.5s-1.3-1-2.4-1h-1.8v7h1.8
			C355,88,355.8,87.7,356.3,87z"/>
		<path class="st6" d="M371.7,88.7l-1-2.3h-4.4l-1,2.3h-0.9l3.5-8.4h0.9l3.5,8.4H371.7z M368.5,81.2l-1.9,4.6h3.8L368.5,81.2z"/>
		<path class="st6" d="M382.7,81v7.7h-0.8V81H379v-0.7h6.6V81H382.7z"/>
		<path class="st6" d="M392.1,88.7v-8.4h0.8v8.4H392.1z"/>
		<path class="st6" d="M405.9,81.3c0.7,0.8,1,1.9,1,3.2c0,1.3-0.3,2.4-1,3.2c-0.7,0.8-1.6,1.2-2.8,1.2s-2.1-0.4-2.8-1.2
			c-0.7-0.8-1-1.9-1-3.2c0-1.3,0.3-2.4,1-3.2c0.7-0.8,1.6-1.2,2.8-1.2S405.2,80.5,405.9,81.3z M405.3,87.2c0.5-0.7,0.8-1.6,0.8-2.7
			s-0.3-1.9-0.8-2.6s-1.3-1-2.2-1c-0.9,0-1.6,0.3-2.1,1s-0.8,1.6-0.8,2.6c0,1.1,0.3,2,0.8,2.7s1.3,1,2.1,1
			C404,88.2,404.8,87.9,405.3,87.2z"/>
		<path class="st6" d="M419,88.7l-4.7-7.3v7.2h-0.8v-8.4h0.9l4.8,7.3v-7.3h0.8v8.4h-1L419,88.7L419,88.7z"/>
	</g>
	<g>
		
			<linearGradient id="SVGID_00000159448785446103146070000013205931326494976646_" gradientUnits="userSpaceOnUse" x1="146.8045" y1="136.1716" x2="128.0514" y2="29.817" gradientTransform="matrix(1 0 0 -1 0 102)">
			<stop  offset="0.073" style="stop-color:#5D5D5D"/>
			<stop  offset="0.2178" style="stop-color:#595959"/>
			<stop  offset="0.4879" style="stop-color:#4D4D4D"/>
			<stop  offset="0.851" style="stop-color:#383838"/>
			<stop  offset="1" style="stop-color:#2F2F2F"/>
		</linearGradient>
		<path style="fill:url(#SVGID_00000159448785446103146070000013205931326494976646_);" d="M128.2,18.4c-6.3,0-7.7,2-9.4,6.7
			l-6.6,17.6h6.5c1.8,0,3.3-1.1,3.9-2.7l4.6-12.6c0.4-1.1,0.9-1.8,2.6-1.8h6.9c1.6,0,2.2,0.7,2.6,1.8l4.6,12.6
			c0.6,1.6,2.2,2.7,3.9,2.7h6.5l-6.6-17.6c-1.8-4.7-3.1-6.7-9.4-6.7h-0.5c-0.1-2.4-2.1-4.4-4.6-4.4h-4.6v4.4
			C128.6,18.4,128.2,18.4,128.2,18.4z"/>
		
			<linearGradient id="SVGID_00000176044855541342455430000014056396308942238356_" gradientUnits="userSpaceOnUse" x1="147.8278" y1="135.9912" x2="129.0746" y2="29.6366" gradientTransform="matrix(1 0 0 -1 0 102)">
			<stop  offset="0.073" style="stop-color:#5D5D5D"/>
			<stop  offset="0.2178" style="stop-color:#595959"/>
			<stop  offset="0.4879" style="stop-color:#4D4D4D"/>
			<stop  offset="0.851" style="stop-color:#383838"/>
			<stop  offset="1" style="stop-color:#2F2F2F"/>
		</linearGradient>
		<path style="fill:url(#SVGID_00000176044855541342455430000014056396308942238356_);" d="M113.6,52h14.9v11.3
			c0,2.7,2.2,4.8,4.8,4.8h4.8v-4.8V52H153h3.6v-3.6c0-2-1.6-3.6-3.6-3.6h-39.4H110v3.6C110,50.4,111.6,52,113.6,52z"/>
		
			<linearGradient id="SVGID_00000127032589952432315020000006952978501407197342_" gradientUnits="userSpaceOnUse" x1="189.2516" y1="128.6871" x2="170.4984" y2="22.3326" gradientTransform="matrix(1 0 0 -1 0 102)">
			<stop  offset="0.073" style="stop-color:#5D5D5D"/>
			<stop  offset="0.2178" style="stop-color:#595959"/>
			<stop  offset="0.4879" style="stop-color:#4D4D4D"/>
			<stop  offset="0.851" style="stop-color:#383838"/>
			<stop  offset="1" style="stop-color:#2F2F2F"/>
		</linearGradient>
		<path style="fill:url(#SVGID_00000127032589952432315020000006952978501407197342_);" d="M170.2,18.4c-3.9,0-7.1,3.2-7.1,7.1v5.1
			c0,3.9,3.2,7.1,7.1,7.1H189c3.9,0,7.1-3.2,7.1-7.1v-5.1c0-3.9-3.2-7.1-7.1-7.1h-4.8c-0.1-2.4-2.1-4.4-4.6-4.4H175v4.4H170.2z
			 M184.9,25.5c0.9,0,1.7,0.7,1.7,1.7v1.7c0,0.9-0.7,1.7-1.7,1.7h-10.4c-0.9,0-1.7-0.7-1.7-1.7v-1.7c0-0.9,0.7-1.7,1.7-1.7H184.9z"
			/>
		
			<linearGradient id="SVGID_00000118361670275247880150000016179832748422665630_" gradientUnits="userSpaceOnUse" x1="190.7271" y1="128.4269" x2="171.9739" y2="22.0723" gradientTransform="matrix(1 0 0 -1 0 102)">
			<stop  offset="0.073" style="stop-color:#5D5D5D"/>
			<stop  offset="0.2178" style="stop-color:#595959"/>
			<stop  offset="0.4879" style="stop-color:#4D4D4D"/>
			<stop  offset="0.851" style="stop-color:#383838"/>
			<stop  offset="1" style="stop-color:#2F2F2F"/>
		</linearGradient>
		<path style="fill:url(#SVGID_00000118361670275247880150000016179832748422665630_);" d="M170.8,46.6h0.9h2h2.2v4.5
			c0,2.7,2.2,4.8,4.8,4.8h4.8v-4.8v-4.5h2h5.2h3.4v-3.4c0-1.9-1.5-3.4-3.4-3.4h-28.5l0,0l0,0h-3.4v3.4c0,1.9,1.5,3.4,3.4,3.4H170.8z
			"/>
		
			<linearGradient id="SVGID_00000067949833841110869320000016768450809822482610_" gradientUnits="userSpaceOnUse" x1="211.8911" y1="124.6952" x2="193.1379" y2="18.3406" gradientTransform="matrix(1 0 0 -1 0 102)">
			<stop  offset="0.073" style="stop-color:#5D5D5D"/>
			<stop  offset="0.2178" style="stop-color:#595959"/>
			<stop  offset="0.4879" style="stop-color:#4D4D4D"/>
			<stop  offset="0.851" style="stop-color:#383838"/>
			<stop  offset="1" style="stop-color:#2F2F2F"/>
		</linearGradient>
		<path style="fill:url(#SVGID_00000067949833841110869320000016768450809822482610_);" d="M202.9,18.4h-4.5v4.5v16.2v7.4v1.2v1.2
			v0.5h-5.9h-3.3v3.3c0,1.8,1.5,3.3,3.3,3.3h0.7h5.2h0.4c0.7,1.6,2.3,2.8,4.2,2.8h4.5v-4.5V22.9C207.5,20.4,205.5,18.4,202.9,18.4z"
			/>
		
			<linearGradient id="SVGID_00000086685851676461328770000014721257185313479852_" gradientUnits="userSpaceOnUse" x1="200.0269" y1="126.7871" x2="181.2738" y2="20.4325" gradientTransform="matrix(1 0 0 -1 0 102)">
			<stop  offset="0.073" style="stop-color:#5D5D5D"/>
			<stop  offset="0.2178" style="stop-color:#595959"/>
			<stop  offset="0.4879" style="stop-color:#4D4D4D"/>
			<stop  offset="0.851" style="stop-color:#383838"/>
			<stop  offset="1" style="stop-color:#2F2F2F"/>
		</linearGradient>
		<path style="fill:url(#SVGID_00000086685851676461328770000014721257185313479852_);" d="M203.9,60.9h-31.7v-7.5
			c0-2.5-2-4.5-4.5-4.5h-4.5v4.5v10.1c0,2.5,2,4.5,4.5,4.5h36.2h3.6v-3.6C207.5,62.5,205.9,60.9,203.9,60.9z"/>
		
			<linearGradient id="SVGID_00000061433342031438931600000010778616189191509125_" gradientUnits="userSpaceOnUse" x1="243.1266" y1="119.1875" x2="224.3735" y2="12.8329" gradientTransform="matrix(1 0 0 -1 0 102)">
			<stop  offset="0.073" style="stop-color:#5D5D5D"/>
			<stop  offset="0.2178" style="stop-color:#595959"/>
			<stop  offset="0.4879" style="stop-color:#4D4D4D"/>
			<stop  offset="0.851" style="stop-color:#383838"/>
			<stop  offset="1" style="stop-color:#2F2F2F"/>
		</linearGradient>
		<path style="fill:url(#SVGID_00000061433342031438931600000010778616189191509125_);" d="M218.6,37.7h4.5h24h9.1v-7.1v-5.1v-2.6
			c0-2.5-2-4.5-4.5-4.5h-4.5h-24h-9.1v7.1v5.1v2.6C214.1,35.7,216.1,37.7,218.6,37.7z M223.2,25.5h24v5.1h-24V25.5z"/>
		
			<linearGradient id="SVGID_00000133497732919148983610000017328969063644040628_" gradientUnits="userSpaceOnUse" x1="245.783" y1="118.7191" x2="227.0298" y2="12.3645" gradientTransform="matrix(1 0 0 -1 0 102)">
			<stop  offset="0.073" style="stop-color:#5D5D5D"/>
			<stop  offset="0.2178" style="stop-color:#595959"/>
			<stop  offset="0.4879" style="stop-color:#4D4D4D"/>
			<stop  offset="0.851" style="stop-color:#383838"/>
			<stop  offset="1" style="stop-color:#2F2F2F"/>
		</linearGradient>
		<path style="fill:url(#SVGID_00000133497732919148983610000017328969063644040628_);" d="M255.1,39.9h-39.8h-3.4v3.4
			c0,1.9,1.5,3.4,3.4,3.4h15.3v4.1c0,2.5,2.1,4.6,4.6,4.6h4.6v-4.6v-4.1h15.3h3.4v-3.4C258.4,41.4,256.9,39.9,255.1,39.9z"/>
		
			<linearGradient id="SVGID_00000065038696284247344910000017051651747728033671_" gradientUnits="userSpaceOnUse" x1="248.3168" y1="118.2723" x2="229.5636" y2="11.9177" gradientTransform="matrix(1 0 0 -1 0 102)">
			<stop  offset="0.073" style="stop-color:#5D5D5D"/>
			<stop  offset="0.2178" style="stop-color:#595959"/>
			<stop  offset="0.4879" style="stop-color:#4D4D4D"/>
			<stop  offset="0.851" style="stop-color:#383838"/>
			<stop  offset="1" style="stop-color:#2F2F2F"/>
		</linearGradient>
		<path style="fill:url(#SVGID_00000065038696284247344910000017051651747728033671_);" d="M252.6,60.8h-29.5v-7.5
			c0-2.5-2-4.5-4.5-4.5h-4.5v4.5v10.2c0,2.5,2,4.5,4.5,4.5h34h3.6v-3.6C256.2,62.4,254.6,60.8,252.6,60.8z"/>
		
			<linearGradient id="SVGID_00000152971545054854184990000001855589838909383076_" gradientUnits="userSpaceOnUse" x1="295.3407" y1="109.9807" x2="276.5875" y2="3.6261" gradientTransform="matrix(1 0 0 -1 0 102)">
			<stop  offset="0.073" style="stop-color:#5D5D5D"/>
			<stop  offset="0.2178" style="stop-color:#595959"/>
			<stop  offset="0.4879" style="stop-color:#4D4D4D"/>
			<stop  offset="0.851" style="stop-color:#383838"/>
			<stop  offset="1" style="stop-color:#2F2F2F"/>
		</linearGradient>
		<path style="fill:url(#SVGID_00000152971545054854184990000001855589838909383076_);" d="M275.4,18.4h-12.6V22
			c0,2,1.6,3.6,3.6,3.6h1.9c-0.6,1-1,2.2-1,3.5v19.1c0,3.9,3.2,7.1,7.1,7.1h1.3v5.6h-9.4h-3.6v3.6c0,2,1.6,3.6,3.6,3.6h38.4h0.9h3.6
			v-3.6v-0.9v-8.8v-7.6h0.4h3.9v-3.9c0-2.2-1.8-3.9-3.9-3.9h-0.4V35v-3.9v-8.2c0-2.5-2-4.5-4.5-4.5h-4.5v4.5v37.9H285v-5.6h1.6
			c3.9,0,7.1-3.2,7.1-7.1v-19c0-1.3-0.4-2.5-1-3.5h1.7h3.6V22c0-2-1.6-3.6-3.6-3.6H285l0,0c-0.1-2.4-2.1-4.4-4.6-4.4h-4.6v4.4H275.4
			z M277,27.3c0-0.9,0.7-1.7,1.7-1.7h3.7c0.9,0,1.7,0.7,1.7,1.7v19.2c0,0.9-0.7,1.7-1.7,1.7h-3.7c-0.9,0-1.7-0.7-1.7-1.7V27.3z"/>
		
			<linearGradient id="SVGID_00000063615026072250171860000004403603059350897299_" gradientUnits="userSpaceOnUse" x1="361.4686" y1="98.3207" x2="342.7154" y2="-8.0339" gradientTransform="matrix(1 0 0 -1 0 102)">
			<stop  offset="0.073" style="stop-color:#5D5D5D"/>
			<stop  offset="0.2178" style="stop-color:#595959"/>
			<stop  offset="0.4879" style="stop-color:#4D4D4D"/>
			<stop  offset="0.851" style="stop-color:#383838"/>
			<stop  offset="1" style="stop-color:#2F2F2F"/>
		</linearGradient>
		<path style="fill:url(#SVGID_00000063615026072250171860000004403603059350897299_);" d="M360.1,18.4h-4.5v4.5v16.3h-2.2V22.9
			c0-2.5-2-4.5-4.5-4.5h-4.5v4.5v40.6c0,2.5,2,4.5,4.5,4.5h4.5v-4.5V47.2h2.2v16.3c0,2.5,2,4.5,4.5,4.5h4.5v-4.5V22.9
			C364.7,20.4,362.6,18.4,360.1,18.4z"/>
		
			<linearGradient id="SVGID_00000167379328567845292610000015515505727594562185_" gradientUnits="userSpaceOnUse" x1="391.8776" y1="92.9587" x2="373.1244" y2="-13.3959" gradientTransform="matrix(1 0 0 -1 0 102)">
			<stop  offset="0.073" style="stop-color:#5D5D5D"/>
			<stop  offset="0.2178" style="stop-color:#595959"/>
			<stop  offset="0.4879" style="stop-color:#4D4D4D"/>
			<stop  offset="0.851" style="stop-color:#383838"/>
			<stop  offset="1" style="stop-color:#2F2F2F"/>
		</linearGradient>
		<path style="fill:url(#SVGID_00000167379328567845292610000015515505727594562185_);" d="M380.3,46.6h20.6h3.4v-3.4
			c0-1.9-1.5-3.4-3.4-3.4h-20.6V25.1h20.6h3.4v-3.4c0-1.9-1.5-3.4-3.4-3.4h-20.6h-9.1V25v14.8V42c0,2.5,2,4.5,4.5,4.5h4.6V46.6z"/>
		
			<linearGradient id="SVGID_00000108999157709189016920000016316050380861364141_" gradientUnits="userSpaceOnUse" x1="416.3636" y1="88.6412" x2="397.6104" y2="-17.7134" gradientTransform="matrix(1 0 0 -1 0 102)">
			<stop  offset="0.073" style="stop-color:#5D5D5D"/>
			<stop  offset="0.2178" style="stop-color:#595959"/>
			<stop  offset="0.4879" style="stop-color:#4D4D4D"/>
			<stop  offset="0.851" style="stop-color:#383838"/>
			<stop  offset="1" style="stop-color:#2F2F2F"/>
		</linearGradient>
		<path style="fill:url(#SVGID_00000108999157709189016920000016316050380861364141_);" d="M416.1,34.6h-0.4V22.9
			c0-2.5-2-4.5-4.5-4.5h-4.5v4.5v31.2c0,2.5,2,4.5,4.5,4.5h4.5v-4.5V42.5h0.4h3.9v-3.9C420,36.4,418.2,34.6,416.1,34.6z"/>
		
			<linearGradient id="SVGID_00000139982684174384505430000014017868178333925764_" gradientUnits="userSpaceOnUse" x1="403.0158" y1="90.9947" x2="384.2627" y2="-15.3599" gradientTransform="matrix(1 0 0 -1 0 102)">
			<stop  offset="0.073" style="stop-color:#5D5D5D"/>
			<stop  offset="0.2178" style="stop-color:#595959"/>
			<stop  offset="0.4879" style="stop-color:#4D4D4D"/>
			<stop  offset="0.851" style="stop-color:#383838"/>
			<stop  offset="1" style="stop-color:#2F2F2F"/>
		</linearGradient>
		<path style="fill:url(#SVGID_00000139982684174384505430000014017868178333925764_);" d="M382.6,53.4c0-2.5-2-4.5-4.5-4.5h-4.5
			v4.5v10.1c0,2.5,2,4.5,4.5,4.5h34h3.6v-3.6c0-2-1.6-3.6-3.6-3.6h-3.3h-26.2V53.4z"/>
		
			<linearGradient id="SVGID_00000044887597292488992270000017326975337357832109_" gradientUnits="userSpaceOnUse" x1="337.8214" y1="102.4903" x2="319.0682" y2="-3.8643" gradientTransform="matrix(1 0 0 -1 0 102)">
			<stop  offset="0.073" style="stop-color:#5D5D5D"/>
			<stop  offset="0.2178" style="stop-color:#595959"/>
			<stop  offset="0.4879" style="stop-color:#4D4D4D"/>
			<stop  offset="0.851" style="stop-color:#383838"/>
			<stop  offset="1" style="stop-color:#2F2F2F"/>
		</linearGradient>
		<path style="fill:url(#SVGID_00000044887597292488992270000017326975337357832109_);" d="M338.6,18.4h-16.9h-3.6V22
			c0,2,1.6,3.6,3.6,3.6h3.9v14.2c-2.8,0-5.2,2.2-5.4,5l-0.2,2.1l-1.8,21.3h4.4c2.2,0,4-1.7,4.2-3.8l1.3-16.7c0-0.4,0.4-0.8,0.8-0.8
			h2.5c0.4,0,0.8,0.3,0.8,0.8l1.3,16.7c0.2,2.2,2,3.8,4.2,3.8h4.4l-1.8-21.3l-0.2-2.1c-0.2-2.8-2.6-5-5.4-5V25.5h3.9h3.6v-3.6
			C342.1,20,340.5,18.4,338.6,18.4z"/>
	</g>
</g>
</svg>
