<?xml version="1.0" encoding="utf-8"?>
<!-- Generator: Adobe Illustrator 26.0.0, SVG Export Plug-In . SVG Version: 6.00 Build 0)  -->
<svg version="1.1" id="레이어_1" xmlns="http://www.w3.org/2000/svg" xmlns:xlink="http://www.w3.org/1999/xlink" x="0px"
	 y="0px" viewBox="0 0 230 35" style="enable-background:new 0 0 230 35;" xml:space="preserve">
<style type="text/css">
	.st0{fill:#FFFFFF;}
	.st1{fill:none;}
</style>
<g>
	<g>
		<g>
			<g>
				<g>
					<rect x="15.26" y="9.39" class="st0" width="1.26" height="1.26"/>
					<rect x="12.94" y="9.39" class="st0" width="1.26" height="1.26"/>
					<rect x="10.63" y="9.39" class="st0" width="1.26" height="1.26"/>
					<path class="st0" d="M3.93,0v17.56c1.88-0.58,3.65-0.75,4.95-0.76l0.28-3.21h8.84l0.49,5.57c5.42,0.01,8.83,1.15,10.2,3.39V0
						H3.93z M9.21,12.99L9.52,8.4h8.1l0.32,4.59H9.21z M10.52,7.9V6.73h6.11V7.9H10.52z M18.18,5.96c-0.14,0.13-0.33,0.27-0.59,0.27
						H9.56c-0.26,0-0.44-0.14-0.59-0.27L8.43,5.42c0,0,1.19-0.38,2.53-0.92V2.94h0.62v0.39c0.63,0.05,1.29,0.08,1.99,0.08
						c0.69,0,1.36-0.03,1.98-0.08V2.94h0.62V4.5c1.34,0.54,2.54,0.92,2.54,0.92L18.18,5.96z"/>
				</g>
				<g>
					<path class="st0" d="M28.67,27.39c-0.88,1.35-2.46,2.13-4.71,2.31c-0.72,0.06-1.16,0.2-1.56,0.86
						c-0.42,0.69-1.6,2.35-3.51,2.74c-0.24,0.05-0.52,0.08-0.83,0.08c-0.77,0-1.73-0.22-2.79-0.95c-1.04-0.73-1.69-1.64-2.26-2.45
						c-0.97-1.36-1.55-2.18-3.72-2.05C7.17,28.06,5.47,28,3.93,27.7V35h24.75v-7.63C28.67,27.38,28.67,27.38,28.67,27.39z"/>
					<path class="st0" d="M9.12,25.1c3.74-0.23,5.11,1.69,6.21,3.24c0.48,0.67,0.94,1.32,1.58,1.77c0.77,0.54,1.24,0.45,1.4,0.41
						c0.67-0.14,1.3-0.84,1.67-1.44c1.1-1.81,2.67-2.13,3.76-2.21c0.91-0.07,2.09-0.31,2.56-1.02c0.33-0.51,0.22-1.2,0.11-1.53
						c-0.51-1.45-3.51-2.32-8.01-2.32l0,0H8.42l0.21-2.35c-1.25,0.04-2.97,0.25-4.7,0.92v4.22C5.26,25.12,6.87,25.24,9.12,25.1z"/>
				</g>
			</g>
		</g>
		<g>
			<polygon class="st0" points="34.87,19.79 40.01,19.79 40.01,24 41.98,24 41.98,19.79 47.12,19.79 47.12,18.3 34.87,18.3 			"/>
			<rect x="100.19" y="10.46" class="st0" width="1.97" height="13.54"/>
			<path class="st0" d="M52.74,20.23h-1.9v2.68c0,0.62,0.38,0.96,1.07,0.96h8.51v-1.5h-7.69V20.23z"/>
			<polygon class="st0" points="58.45,16.47 49.07,16.47 49.07,17.81 52.06,17.81 52.06,19.79 53.88,19.79 53.88,17.81 58.45,17.81 
				58.45,18.45 55.41,18.45 55.41,19.79 58.45,19.79 58.45,21.27 60.43,21.27 60.43,10.46 58.45,10.46 			"/>
			<polygon class="st0" points="40.99,13.73 45.47,17.49 46.6,16.14 42,12.28 42,10.29 39.99,10.29 39.99,12.28 35.38,16.14 
				36.52,17.49 			"/>
			<polygon class="st0" points="95.74,10.7 93.59,10.7 93.59,14.07 90.26,18.89 91.76,19.94 94.66,15.73 97.57,19.94 99.07,18.89 
				95.74,14.07 			"/>
			<path class="st0" d="M53.25,16.15c1.92,0,3.48-1.41,3.48-3.14c0-1.73-1.56-3.14-3.48-3.14c-1.92,0-3.48,1.4-3.48,3.14
				C49.77,14.74,51.33,16.15,53.25,16.15z M53.25,11.43c0.87,0,1.58,0.71,1.58,1.58c0,0.87-0.71,1.58-1.58,1.58
				c-0.87,0-1.58-0.71-1.58-1.58C51.67,12.14,52.38,11.43,53.25,11.43z"/>
			<g>
				<rect x="86.19" y="10.46" class="st0" width="1.97" height="13.54"/>
				<path class="st0" d="M83.66,13.2h-1.38v1.26h1.38v2.63h-1.38v1.25h1.38v1.47h-4.67l0,0v-3.48h2.94v-1.01v-0.17v-3.15v-1.17
					h-1.96h-2.71v1.17h2.71v3.15h-1.15h-1.56v1.17v1.81v1.67v0.4v0.03c0,0.48,0.3,0.75,0.84,0.75h5.57V24h1.85V10.46h-1.85V13.2z"/>
			</g>
			<g>
				<polygon class="st0" points="73.31,14.53 65.51,14.53 65.51,13.9 73.31,13.9 73.31,12.51 65.51,12.51 65.51,11.85 73.31,11.85 
					73.31,10.46 65.51,10.46 63.95,10.46 63.95,11.85 63.95,12.51 63.95,13.9 63.95,14.53 63.95,15.57 63.95,15.92 73.31,15.92 				
					"/>
				<rect x="62.78" y="16.96" class="st0" width="11.71" height="1.34"/>
				<polygon class="st0" points="63.92,19.27 63.92,20.61 71.73,20.61 71.73,23.74 73.31,23.74 73.31,20.61 73.31,19.27 
					71.73,19.27 				"/>
			</g>
		</g>
	</g>
	<g>
		<g>
			<path class="st0" d="M185.33,18.05v1.58h-5.66v2.23h-1.83v-2.23h-5.77v-1.58H185.33z M173.15,16.58v-5.54h11.12v5.54H173.15z
				 M174.94,20.66v2.8h9.5v1.58h-11.29v-4.38H174.94z M182.49,12.58h-7.58v2.52h7.58V12.58z"/>
			<path class="st0" d="M196.4,23.84h-9.45v-1.57h3.8v-1.79c-0.17-0.04-0.33-0.1-0.49-0.16c-0.43-0.17-0.81-0.4-1.13-0.69
				c-0.32-0.3-0.58-0.65-0.76-1.04c-0.18-0.39-0.27-0.81-0.27-1.25c0-0.44,0.09-0.86,0.27-1.24c0.18-0.39,0.44-0.73,0.76-1.03
				c0.32-0.3,0.7-0.54,1.12-0.7c0.42-0.17,0.88-0.25,1.36-0.25c0.49,0,0.94,0.08,1.36,0.25c0.42,0.17,0.79,0.4,1.1,0.7
				c0.32,0.3,0.58,0.65,0.77,1.03c0.19,0.39,0.28,0.8,0.28,1.24c0,0.44-0.09,0.86-0.28,1.25c-0.19,0.39-0.44,0.74-0.77,1.04
				c-0.31,0.29-0.68,0.52-1.1,0.69c-0.17,0.08-0.35,0.14-0.53,0.18v1.78h3.96V23.84z M190.62,12.3v-1.54h1.94v1.54h3.51v1.53h-8.95
				V12.3H190.62z M193.38,17.31c0-0.47-0.17-0.88-0.52-1.22c-0.34-0.34-0.76-0.51-1.26-0.51c-0.5,0-0.92,0.17-1.26,0.51
				c-0.34,0.34-0.52,0.75-0.52,1.22c0,0.47,0.17,0.88,0.52,1.23c0.35,0.35,0.77,0.52,1.26,0.52c0.5,0,0.92-0.17,1.26-0.52
				C193.21,18.2,193.38,17.79,193.38,17.31z M199.2,25.28h-1.78V10.86h1.78v6.25h1.84v1.73h-1.84V25.28z"/>
			<path class="st0" d="M202.19,13.34v-1.58h7.01v1.58h-2.94l3.23,9.65l-1.52,0.45l-2.28-6.93l-2.26,7.05l-1.57-0.45l3.25-9.76
				H202.19z M211.82,25.2h-1.66V10.88h1.66v5.98h1.66v-6h1.71v14.41h-1.71v-6.77h-1.66V25.2z"/>
			<path class="st0" d="M217.27,13.56v-1.5h3.38v-1.37h1.91v1.37h3.22v1.5h-3.51l3.64,3.69l-1.16,1.1l-3.13-3.26l-3.1,3.52
				l-1.2-1.11l3.65-3.93H217.27z M228.77,22.21c0,0.48-0.1,0.94-0.3,1.37c-0.2,0.43-0.47,0.8-0.8,1.12
				c-0.33,0.32-0.73,0.58-1.19,0.77c-0.46,0.19-0.95,0.28-1.46,0.28c-0.51,0-0.99-0.09-1.45-0.28c-0.46-0.19-0.86-0.44-1.2-0.77
				c-0.33-0.32-0.6-0.7-0.8-1.12c-0.2-0.43-0.3-0.88-0.3-1.37s0.1-0.94,0.3-1.36c0.2-0.43,0.47-0.8,0.8-1.12
				c0.33-0.32,0.73-0.58,1.2-0.77c0.46-0.19,0.95-0.28,1.45-0.28c0.52,0,1,0.09,1.46,0.28c0.46,0.19,0.85,0.44,1.19,0.77
				c0.33,0.32,0.6,0.7,0.8,1.12C228.67,21.27,228.77,21.72,228.77,22.21z M227.01,22.19c0-0.54-0.2-1-0.59-1.39
				c-0.39-0.39-0.86-0.58-1.41-0.58c-0.54,0-1,0.19-1.39,0.58c-0.39,0.39-0.58,0.85-0.58,1.39c0,0.55,0.19,1.02,0.58,1.4
				c0.39,0.38,0.85,0.57,1.39,0.57c0.55,0,1.02-0.19,1.41-0.57C226.81,23.21,227.01,22.74,227.01,22.19z M228.21,18.54v-2.75h-2.52
				v-1.53h2.52v-3.39H230v7.68H228.21z"/>
		</g>
		<g>
			<g>
				<g>
					<g>
						<g>
							<g>
								<path class="st0" d="M154.18,16.7c-3.04-2.07-6.93-1.22-8.98,1.88c-1.71,2.6-4.28,2.92-5.28,2.92
									c-3.25,0-5.48-2.29-6.14-4.65h0c-0.01-0.02-0.01-0.04-0.02-0.07c-0.01-0.03-0.02-0.05-0.02-0.08
									c-0.26-0.99-0.32-1.46-0.32-2.51c0-5.66,5.81-11.96,14.17-11.96c8.57,0,13.47,6.52,14.73,10.14
									c-0.02-0.06-0.04-0.13-0.06-0.19C159.83,5.1,153.11,0,145.2,0c-9.96,0-18.04,8.07-18.04,18.04c0,8.9,6.42,16.53,15.33,16.53
									c7.11,0,11.88-3.98,14.07-9.47C157.76,22.09,156.91,18.56,154.18,16.7z"/>
							</g>
							<g>
								<path class="st0" d="M162.44,12.73c-1.05-3.53-5.99-10.5-14.84-10.5c-8.37,0-14.17,6.3-14.17,11.96
									c0,1.05,0.06,1.52,0.32,2.51c-0.11-0.43-0.17-0.87-0.17-1.29c0-5.89,5.9-9.98,11.97-9.98c8.21,0,14.87,6.66,14.87,14.87
									c0,6.44-3.7,12.01-9.09,14.69l0,0c6.94-2.51,11.89-9.16,11.89-16.96C163.23,16.19,162.98,14.56,162.44,12.73z"/>
							</g>
						</g>
					</g>
				</g>
			</g>
		</g>
	</g>
	<rect class="st1" width="230" height="35"/>
</g>
</svg>
