<?xml version="1.0" encoding="utf-8"?>
<!-- Generator: Adobe Illustrator 26.0.0, SVG Export Plug-In . SVG Version: 6.00 Build 0)  -->
<svg version="1.1" id="레이어_1" xmlns="http://www.w3.org/2000/svg" xmlns:xlink="http://www.w3.org/1999/xlink" x="0px"
	 y="0px" viewBox="0 0 60 60" style="enable-background:new 0 0 60 60;" xml:space="preserve">
<style type="text/css">
	.st0{fill:#FFFFFF;}
	.st1{fill:none;stroke:#FFFFFF;stroke-linecap:round;stroke-linejoin:round;stroke-miterlimit:10;}
</style>
<g>
	<path class="st0" d="M30,1c16,0,29,13,29,29S46,59,30,59S1,46,1,30S14,1,30,1 M30,0C13.43,0,0,13.43,0,30s13.43,30,30,30
		s30-13.43,30-30S46.57,0,30,0L30,0z"/>
</g>
<g>
	<line class="st1" x1="24.1" y1="12.48" x2="24.1" y2="41.58"/>
	<path class="st1" d="M31.23,45.52H16.97c-1.09,0-1.97-0.88-1.97-1.97l0,0c0-1.09,0.88-1.97,1.97-1.97h14.26
		c1.09,0,1.97,0.88,1.97,1.97l0,0C33.2,44.64,32.32,45.52,31.23,45.52z"/>
	<polygon class="st1" points="24.1,14.61 24.1,19.9 24.1,25.19 45,25.19 40.86,19.9 45,14.61 	"/>
</g>
</svg>
