<?xml version="1.0" encoding="utf-8"?>
<!-- Generator: Adobe Illustrator 26.0.0, SVG Export Plug-In . SVG Version: 6.00 Build 0)  -->
<svg version="1.1" id="레이어_1" xmlns="http://www.w3.org/2000/svg" xmlns:xlink="http://www.w3.org/1999/xlink" x="0px"
	 y="0px" viewBox="0 0 60 60" style="enable-background:new 0 0 60 60;" xml:space="preserve">
<style type="text/css">
	.st0{fill:#FFFFFF;}
	.st1{fill:none;stroke:#FFFFFF;stroke-miterlimit:10;}
</style>
<g>
	<path class="st0" d="M30,1c16,0,29,13,29,29S46,59,30,59S1,46,1,30S14,1,30,1 M30,0C13.43,0,0,13.43,0,30s13.43,30,30,30
		s30-13.43,30-30S46.57,0,30,0L30,0z"/>
</g>
<g>
	<path class="st1" d="M34.63,14.62h-9.27c-7.11,0-12.87,5.76-12.87,12.87s5.76,12.87,12.87,12.87h8.33l3.33,5.02l3.24-6.33
		c4.28-2.09,7.24-6.47,7.24-11.56C47.5,20.38,41.74,14.62,34.63,14.62z"/>
	<g>
		<circle class="st0" cx="21.88" cy="27.12" r="1.49"/>
		<circle class="st0" cx="30" cy="27.12" r="1.49"/>
		<circle class="st0" cx="38.12" cy="27.12" r="1.49"/>
	</g>
</g>
</svg>
