<?xml version="1.0" encoding="utf-8"?>
<!-- Generator: Adobe Illustrator 26.0.0, SVG Export Plug-In . SVG Version: 6.00 Build 0)  -->
<svg version="1.1" id="레이어_1" xmlns="http://www.w3.org/2000/svg" xmlns:xlink="http://www.w3.org/1999/xlink" x="0px"
	 y="0px" viewBox="0 0 60 60" style="enable-background:new 0 0 60 60;" xml:space="preserve">
<style type="text/css">
	.st0{fill:none;stroke:#FFFFFF;stroke-linecap:round;stroke-linejoin:round;stroke-miterlimit:10;}
	.st1{fill:#FFFFFF;}
</style>
<g>
	<line class="st0" x1="11.25" y1="30" x2="14.82" y2="30"/>
	<line class="st0" x1="27.83" y1="30" x2="35.76" y2="30"/>
	<line class="st0" x1="27.83" y1="43.01" x2="27.83" y2="46.58"/>
	<line class="st0" x1="27.83" y1="13.42" x2="27.83" y2="16.99"/>
	<path class="st0" d="M44.41,30c0-9.16-7.42-16.58-16.58-16.58S11.25,20.84,11.25,30s7.42,16.58,16.58,16.58"/>
	<line class="st0" x1="44.41" y1="30" x2="40.84" y2="30"/>
	<line class="st0" x1="27.83" y1="43.01" x2="27.83" y2="46.58"/>
	<line class="st0" x1="27.83" y1="21.55" x2="27.83" y2="30"/>
	<polyline class="st0" points="33.54,35.01 36.78,46.58 40.69,35.01 	"/>
	<polyline class="st0" points="40.69,35.01 43.93,46.58 47.83,35.01 	"/>
	<line class="st0" x1="32.57" y1="40.2" x2="48.75" y2="40.2"/>
</g>
<g>
	<path class="st1" d="M30,1c16,0,29,13,29,29S46,59,30,59S1,46,1,30S14,1,30,1 M30,0C13.43,0,0,13.43,0,30s13.43,30,30,30
		s30-13.43,30-30S46.57,0,30,0L30,0z"/>
</g>
</svg>
