<?xml version="1.0" encoding="utf-8"?>
<!-- Generator: Adobe Illustrator 26.0.0, SVG Export Plug-In . SVG Version: 6.00 Build 0)  -->
<svg version="1.1" id="레이어_1" xmlns="http://www.w3.org/2000/svg" xmlns:xlink="http://www.w3.org/1999/xlink" x="0px"
	 y="0px" viewBox="0 0 60 60" style="enable-background:new 0 0 60 60;" xml:space="preserve">
<style type="text/css">
	.st0{fill:none;stroke:#FFFFFF;stroke-linecap:round;stroke-linejoin:round;stroke-miterlimit:10;}
	.st1{fill:#FFFFFF;}
</style>
<g>
	<polyline class="st0" points="43.72,24.1 43.72,14.2 13.25,14.2 13.25,44.67 43.72,44.67 43.72,34.77 	"/>
	<line class="st0" x1="32.63" y1="38.02" x2="31.59" y2="38.02"/>
	<polyline class="st0" points="39.48,33.95 39.5,38.02 36.73,38.02 	"/>
	<line class="st0" x1="36.89" y1="27.64" x2="37.4" y2="27.64"/>
	<polyline class="st0" points="20.04,27.64 17.47,27.64 17.5,38.02 20.27,38.02 	"/>
	<line class="st0" x1="25.41" y1="38.02" x2="24.37" y2="38.02"/>
	<polyline class="st0" points="36.93,24.24 39.5,24.24 36.25,20.85 20.75,20.85 17.5,24.24 20.07,24.24 	"/>
	<line class="st0" x1="36.93" y1="24.24" x2="36.89" y2="27.64"/>
	<line class="st0" x1="20.07" y1="24.24" x2="20.04" y2="27.64"/>
	<line class="st0" x1="36.89" y1="27.64" x2="20.04" y2="27.64"/>
	<line class="st0" x1="20.07" y1="24.24" x2="36.93" y2="24.24"/>
	<path class="st0" d="M31.59,38.02v-4.58c0-1.71-1.38-3.09-3.09-3.09c-1.71,0-3.09,1.38-3.09,3.09v4.58"/>
	<line class="st0" x1="25.41" y1="38.02" x2="31.59" y2="38.02"/>
	<path class="st0" d="M24.37,38.02v-4.06c0-1.13-0.92-2.05-2.05-2.05s-2.05,0.92-2.05,2.05v4.06"/>
	<line class="st0" x1="20.27" y1="38.02" x2="24.37" y2="38.02"/>
	<path class="st0" d="M36.73,38.02v-4.06c0-1.13-0.92-2.05-2.05-2.05s-2.05,0.92-2.05,2.05v4.06"/>
	<line class="st0" x1="32.63" y1="38.02" x2="36.73" y2="38.02"/>
	<path class="st0" d="M39.48,33.95c0.87,0.59,1.93,0.94,3.07,0.94c0.4,0,0.79-0.05,1.16-0.13"/>
	<path class="st0" d="M46.41,33.3c-0.73,0.73-1.66,1.25-2.7,1.47"/>
	<path class="st0" d="M43.72,24.1c2.46,0.53,4.29,2.72,4.29,5.33c0,1.51-0.61,2.87-1.6,3.86"/>
	<path class="st0" d="M37.4,27.64c0.74-2.13,2.77-3.66,5.15-3.66c0.4,0,0.79,0.05,1.16,0.13"/>
	<path class="st0" d="M37.4,27.64c-0.2,0.56-0.31,1.17-0.31,1.8c0,1.88,0.95,3.53,2.39,4.52"/>
	<line class="st0" x1="50.75" y1="37.63" x2="46.41" y2="33.3"/>
</g>
<g>
	<path class="st1" d="M30,1c16,0,29,13,29,29S46,59,30,59S1,46,1,30S14,1,30,1 M30,0C13.43,0,0,13.43,0,30s13.43,30,30,30
		s30-13.43,30-30S46.57,0,30,0L30,0z"/>
</g>
</svg>
