<?xml version="1.0" encoding="utf-8"?>
<!-- Generator: Adobe Illustrator 26.0.0, SVG Export Plug-In . SVG Version: 6.00 Build 0)  -->
<svg version="1.1" id="레이어_1" xmlns="http://www.w3.org/2000/svg" xmlns:xlink="http://www.w3.org/1999/xlink" x="0px"
	 y="0px" viewBox="0 0 60 60" style="enable-background:new 0 0 60 60;" xml:space="preserve">
<style type="text/css">
	.st0{fill:#FFFFFF;}
	.st1{fill:none;stroke:#FFFFFF;stroke-linecap:round;stroke-linejoin:round;stroke-miterlimit:10;}
</style>
<g>
	<path class="st0" d="M30,1c16,0,29,13,29,29S46,59,30,59S1,46,1,30S14,1,30,1 M30,0C13.43,0,0,13.43,0,30s13.43,30,30,30
		s30-13.43,30-30S46.57,0,30,0L30,0z"/>
</g>
<g>
	<path class="st1" d="M45.78,40.44H14.22c-0.95,0-1.72-0.77-1.72-1.72V18.57c0-0.95,0.77-1.72,1.72-1.72h31.57
		c0.95,0,1.72,0.77,1.72,1.72v20.16C47.5,39.67,46.73,40.44,45.78,40.44z"/>
	<line class="st1" x1="12.5" y1="36.57" x2="47.5" y2="36.57"/>
	<rect x="26.73" y="40.44" class="st1" width="6.2" height="4.71"/>
	<line class="st1" x1="23.02" y1="45.15" x2="36.98" y2="45.15"/>
	<polyline class="st1" points="23.47,25.99 29.39,32.02 38.09,22.17 	"/>
</g>
</svg>
