<?xml version="1.0" encoding="utf-8"?>
<!-- Generator: Adobe Illustrator 26.0.0, SVG Export Plug-In . SVG Version: 6.00 Build 0)  -->
<svg version="1.1" id="레이어_1" xmlns="http://www.w3.org/2000/svg" xmlns:xlink="http://www.w3.org/1999/xlink" x="0px"
	 y="0px" viewBox="0 0 60 60" style="enable-background:new 0 0 60 60;" xml:space="preserve">
<style type="text/css">
	.st0{fill:none;stroke:#FFFFFF;stroke-linecap:round;stroke-linejoin:round;stroke-miterlimit:10;}
	.st1{fill:#FFFFFF;}
</style>
<g>
	<rect x="14.01" y="23.5" class="st0" width="31.97" height="21.73"/>
	<g>
		<line class="st0" x1="19.85" y1="19.76" x2="19.85" y2="14.77"/>
		<line class="st0" x1="26.62" y1="19.76" x2="26.62" y2="14.77"/>
		<line class="st0" x1="33.38" y1="19.76" x2="33.38" y2="14.77"/>
		<line class="st0" x1="40.15" y1="19.76" x2="40.15" y2="14.77"/>
	</g>
	<polyline class="st0" points="23.37,32.58 28.8,38.55 37.79,28.84 	"/>
	<polygon class="st0" points="45.99,17.26 14.01,17.26 12.5,17.26 12.5,23.5 14.01,23.5 45.99,23.5 47.5,23.5 47.5,17.26 	"/>
</g>
<g>
	<path class="st1" d="M30,1c16,0,29,13,29,29S46,59,30,59S1,46,1,30S14,1,30,1 M30,0C13.43,0,0,13.43,0,30s13.43,30,30,30
		s30-13.43,30-30S46.57,0,30,0L30,0z"/>
</g>
</svg>
