<?xml version="1.0" encoding="utf-8"?>
<!-- Generator: Adobe Illustrator 26.0.0, SVG Export Plug-In . SVG Version: 6.00 Build 0)  -->
<svg version="1.1" id="레이어_1" xmlns="http://www.w3.org/2000/svg" xmlns:xlink="http://www.w3.org/1999/xlink" x="0px"
	 y="0px" viewBox="0 0 60 60" style="enable-background:new 0 0 60 60;" xml:space="preserve">
<style type="text/css">
	.st0{fill:#FFFFFF;}
	.st1{fill:none;stroke:#FFFFFF;stroke-miterlimit:10;}
</style>
<g>
	<path class="st0" d="M30,1c16,0,29,13,29,29S46,59,30,59S1,46,1,30S14,1,30,1 M30,0C13.43,0,0,13.43,0,30s13.43,30,30,30
		s30-13.43,30-30S46.57,0,30,0L30,0z"/>
</g>
<circle class="st1" cx="30" cy="30" r="18.75"/>
<path class="st1" d="M39.16,24.82L39.16,24.82c-0.3-0.84-0.76-1.62-1.38-2.31c-0.61-0.69-1.4-1.26-2.35-1.72
	c-0.96-0.46-2.1-0.69-3.38-0.69h-8.64v19.8h5.86v-5.6h2.78c1.24,0,2.35-0.21,3.29-0.61c0.95-0.41,1.75-0.95,2.38-1.62
	c0.63-0.67,1.11-1.45,1.42-2.32c0.3-0.83,0.45-1.69,0.45-2.54C39.59,26.44,39.44,25.64,39.16,24.82z M33.68,27.21
	c0,0.59-0.15,1.02-0.45,1.32c-0.32,0.31-0.76,0.45-1.37,0.45h-2.59v-3.57h2.59c0.79,0,1.15,0.27,1.36,0.47
	C33.42,26.07,33.68,26.42,33.68,27.21z"/>
</svg>
