<?xml version="1.0" encoding="utf-8"?>
<!-- Generator: Adobe Illustrator 26.0.0, SVG Export Plug-In . SVG Version: 6.00 Build 0)  -->
<svg version="1.1" id="레이어_1" xmlns="http://www.w3.org/2000/svg" xmlns:xlink="http://www.w3.org/1999/xlink" x="0px"
	 y="0px" viewBox="0 0 60 60" style="enable-background:new 0 0 60 60;" xml:space="preserve">
<style type="text/css">
	.st0{fill:#FFFFFF;}
	.st1{fill:none;stroke:#FFFFFF;stroke-linecap:round;stroke-linejoin:round;stroke-miterlimit:10;}
</style>
<g>
	<path class="st0" d="M30,1c16,0,29,13,29,29S46,59,30,59S1,46,1,30S14,1,30,1 M30,0C13.43,0,0,13.43,0,30s13.43,30,30,30
		s30-13.43,30-30S46.57,0,30,0L30,0z"/>
</g>
<g>
	<path class="st1" d="M31.98,42.69c-1.45,2.76-3.44,1.65-4.03,1.24c-0.6-0.41-6.64-4.63-7.7-5.5c-1.05-0.87-1.37-1.88-0.41-3.48
		c0.96-1.6,2.84-1.47,3.25-1.15s8.29,6.6,8.94,7.24C32.67,41.68,31.98,42.69,31.98,42.69c0.96,0.09,1.76,0.23,2.34-0.55
		c0.6-0.8,0.14-1.79,0.14-1.79s0.99,0.44,1.79-0.5c0.88-1.03-0.09-1.92-0.09-1.92s1.03,0.67,1.97-0.32c1.01-1.05,0.32-2.3,0.32-2.3
		l-5.45-7.82c0,0-4.99,1.24-6.21-1.01c-0.73-1.34,0.71-1.92,0.71-1.92L12.92,19.5L8.75,33.39l10.52,3.44"/>
	<path class="st1" d="M51.25,34.64L47.2,19.96l-10.36,3.71c0,0-0.73-2.06-9.35,0.87"/>
	<line class="st1" x1="20.84" y1="33.96" x2="24.07" y2="23.36"/>
	<polyline class="st1" points="36.84,23.67 41.56,37.88 51.25,34.64 	"/>
	<path class="st1" d="M38.12,37.6c0,0,1.93-0.14,2.87-1.44"/>
</g>
</svg>
