<?xml version="1.0" encoding="utf-8"?>
<!-- Generator: Adobe Illustrator 26.0.0, SVG Export Plug-In . SVG Version: 6.00 Build 0)  -->
<svg version="1.1" id="레이어_1" xmlns="http://www.w3.org/2000/svg" xmlns:xlink="http://www.w3.org/1999/xlink" x="0px"
	 y="0px" viewBox="0 0 60 60" style="enable-background:new 0 0 60 60;" xml:space="preserve">
<style type="text/css">
	.st0{fill:#FFFFFF;}
	.st1{fill:none;stroke:#FFFFFF;stroke-linecap:round;stroke-linejoin:round;stroke-miterlimit:10;}
</style>
<g>
	<path class="st0" d="M30,1c16,0,29,13,29,29S46,59,30,59S1,46,1,30S14,1,30,1 M30,0C13.43,0,0,13.43,0,30s13.43,30,30,30
		s30-13.43,30-30S46.57,0,30,0L30,0z"/>
</g>
<g>
	<path class="st1" d="M39.72,16.13L39.72,16.13C37.23,13.64,33.8,12.1,30,12.1c-3.8,0-7.23,1.54-9.72,4.03l0,0
		c-2.49,2.49-4.03,5.93-4.03,9.72c0,3.8,1.54,7.23,4.03,9.72l0,0L30,45.3l9.72-9.72c2.49-2.49,4.03-5.93,4.03-9.72
		C43.75,22.06,42.21,18.62,39.72,16.13z"/>
	<path class="st1" d="M36.2,19.6L36.2,19.6c-1.59-1.59-3.78-2.57-6.2-2.57c-2.42,0-4.61,0.98-6.2,2.57l0,0
		c-1.59,1.59-2.57,3.78-2.57,6.2c0,2.42,0.98,4.61,2.57,6.2l0,0c1.59,1.59,3.78,2.57,6.2,2.57c2.42,0,4.61-0.98,6.2-2.57
		c1.59-1.59,2.57-3.78,2.57-6.2C38.76,23.38,37.78,21.19,36.2,19.6z"/>
	<line class="st1" x1="20.03" y1="47.9" x2="40.57" y2="47.9"/>
</g>
</svg>
