<?xml version="1.0" encoding="utf-8"?>
<!-- Generator: Adobe Illustrator 26.0.0, SVG Export Plug-In . SVG Version: 6.00 Build 0)  -->
<svg version="1.1" id="레이어_1" xmlns="http://www.w3.org/2000/svg" xmlns:xlink="http://www.w3.org/1999/xlink" x="0px"
	 y="0px" viewBox="0 0 60 60" style="enable-background:new 0 0 60 60;" xml:space="preserve">
<style type="text/css">
	.st0{fill:none;stroke:#FFFFFF;stroke-linecap:round;stroke-linejoin:round;stroke-miterlimit:10;}
	.st1{fill:#FFFFFF;stroke:#FFFFFF;stroke-linecap:round;stroke-linejoin:round;stroke-miterlimit:10;}
	.st2{fill:#FFFFFF;}
</style>
<g>
	<line class="st0" x1="13.75" y1="44.97" x2="46.25" y2="44.97"/>
	<polygon class="st1" points="14.66,40.61 20.18,39.5 15.77,35.09 	"/>
	<polygon class="st0" points="21.43,25.77 16.69,30.51 15.77,35.09 20.18,39.5 24.76,38.58 29.5,33.84 44.24,19.09 36.17,11.03 	"/>
	<line class="st0" x1="16.69" y1="30.51" x2="24.76" y2="38.58"/>
	<line class="st0" x1="40.29" y1="23.05" x2="32.22" y2="14.98"/>
</g>
<g>
	<path class="st2" d="M30,1c16,0,29,13,29,29S46,59,30,59S1,46,1,30S14,1,30,1 M30,0C13.43,0,0,13.43,0,30s13.43,30,30,30
		s30-13.43,30-30S46.57,0,30,0L30,0z"/>
</g>
</svg>
