<?xml version="1.0" encoding="utf-8"?>
<!-- Generator: Adobe Illustrator 26.0.0, SVG Export Plug-In . SVG Version: 6.00 Build 0)  -->
<svg version="1.1" id="레이어_1" xmlns="http://www.w3.org/2000/svg" xmlns:xlink="http://www.w3.org/1999/xlink" x="0px"
	 y="0px" viewBox="0 0 100 85" style="enable-background:new 0 0 100 85;" xml:space="preserve">
<style type="text/css">
	.st0{fill:#B5B5B6;}
</style>
<path class="st0" d="M36.34,20.69c-3.01,1.41-5.93,3.35-8.77,5.82c-1.67,1.82-2.97,4.17-3.88,7.06c-0.92,2.89-1.46,5.33-1.63,7.31
	h22.56V85H0V51.05c0-8.26,0.67-15.07,2.01-20.44c1.34-5.37,3.59-10.12,6.77-14.25c3.51-4.62,8.15-8.46,13.91-11.52
	C28.45,1.78,32.66,0.17,35.34,0l11.03,17.84C42.69,18.34,39.35,19.29,36.34,20.69z M89.98,20.69c-3.01,1.41-5.93,3.35-8.77,5.82
	c-1.84,1.82-3.18,4.17-4.01,7.06c-0.84,2.89-1.34,5.33-1.5,7.31H98V85H53.38V51.05c0-8.26,0.71-15.07,2.13-20.44
	c1.42-5.37,3.72-10.12,6.89-14.25c3.51-4.62,8.15-8.46,13.91-11.52C82.08,1.78,86.3,0.17,88.97,0L100,17.84
	C96.32,18.34,92.98,19.29,89.98,20.69z"/>
</svg>
