<?xml version="1.0" encoding="utf-8"?>
<!-- Generator: Adobe Illustrator 24.2.0, SVG Export Plug-In . SVG Version: 6.00 Build 0)  -->
<svg version="1.1" id="레이어_1" xmlns="http://www.w3.org/2000/svg" xmlns:xlink="http://www.w3.org/1999/xlink" x="0px"
	 y="0px" viewBox="0 0 25 25" style="enable-background:new 0 0 25 25;" xml:space="preserve">
<style type="text/css">
	.st0{fill:#FFFFFF;}
</style>
<path class="st0" d="M16.6,15.8c1.5-1.7,2.4-3.9,2.4-6.3C19,4.3,14.7,0,9.5,0S0,4.3,0,9.5S4.3,19,9.5,19c2.4,0,4.7-0.9,6.3-2.4
	l8.4,8.4H25v-0.7L16.6,15.8z M15.1,15.8c-1.5,1.3-3.5,2.2-5.6,2.2C4.8,18,1,14.2,1,9.5S4.8,1,9.5,1S18,4.8,18,9.5
	c0,2.2-0.8,4.1-2.2,5.6C15.6,15.4,15.4,15.6,15.1,15.8z"/>
</svg>
