<?xml version="1.0" encoding="utf-8"?>
<!-- Generator: Adobe Illustrator 26.0.0, SVG Export Plug-In . SVG Version: 6.00 Build 0)  -->
<svg version="1.1" id="레이어_1" xmlns="http://www.w3.org/2000/svg" xmlns:xlink="http://www.w3.org/1999/xlink" x="0px"
	 y="0px" viewBox="0 0 25 25" style="enable-background:new 0 0 25 25;" xml:space="preserve">
<path d="M20.4,19.7l-4.8-4.8c1.2-1.3,1.9-3,1.9-4.9c0-4.1-3.4-7.5-7.5-7.5S2.5,5.9,2.5,10s3.4,7.5,7.5,7.5c1.9,0,3.6-0.7,4.9-1.9
	l5.1,5.1l1.7,1.7h0.7v-0.7L20.4,19.7z M10,16.5c-3.6,0-6.5-2.9-6.5-6.5S6.4,3.5,10,3.5s6.5,2.9,6.5,6.5S13.6,16.5,10,16.5z"/>
</svg>
