<?xml version="1.0" encoding="utf-8"?>
<!-- Generator: Adobe Illustrator 26.0.0, SVG Export Plug-In . SVG Version: 6.00 Build 0)  -->
<svg version="1.1" id="레이어_1" xmlns="http://www.w3.org/2000/svg" xmlns:xlink="http://www.w3.org/1999/xlink" x="0px"
	 y="0px" viewBox="0 0 90 90" style="enable-background:new 0 0 90 90;" xml:space="preserve">
<style type="text/css">
	.st0{fill:#FFFFFF;}
</style>
<g>
	<path class="st0" d="M45,0C20.15,0,0,20.15,0,45c0,24.85,20.15,45,45,45c24.85,0,45-20.15,45-45C90,20.15,69.85,0,45,0z
		 M27.46,40.09h-2.98h-5.3h-4.36c-0.94,0-1.71,0.77-1.71,1.71v0c0,0.94,0.77,1.71,1.71,1.71h4.36h3.59c0.6,0,1.18,0.12,1.71,0.33
		c1.21,0.48,2.18,1.44,2.65,2.65c0.21,0.53,0.33,1.11,0.33,1.71s-0.12,1.18-0.33,1.71c-0.48,1.21-1.44,2.18-2.65,2.65
		c-0.53,0.21-1.11,0.33-1.71,0.33h-9.66h-2.98v-2.98h2.98h5.3h4.36h0c0.94,0,1.71-0.77,1.71-1.71c0-0.95-0.77-1.71-1.71-1.71h-4.36
		h-3.59c-0.6,0-1.18-0.12-1.71-0.33c-1.21-0.48-2.18-1.44-2.65-2.65c-0.21-0.53-0.33-1.11-0.33-1.71c0-0.6,0.12-1.18,0.33-1.71
		c0.48-1.21,1.44-2.18,2.65-2.65c0.53-0.21,1.11-0.33,1.71-0.33h9.66h2.98V40.09z M45.85,40.09h-2.98h-5.3h-4.36
		c-0.94,0-1.71,0.77-1.71,1.71v0c0,0.94,0.77,1.71,1.71,1.71h4.36h3.59c0.6,0,1.18,0.12,1.71,0.33c1.21,0.48,2.18,1.44,2.65,2.65
		c0.21,0.53,0.33,1.11,0.33,1.71s-0.12,1.18-0.33,1.71c-0.48,1.21-1.44,2.18-2.65,2.65c-0.53,0.21-1.11,0.33-1.71,0.33H31.5h-2.98
		v-2.98h2.98h5.3h4.36h0c0.94,0,1.71-0.77,1.71-1.71c0-0.95-0.77-1.71-1.71-1.71h-4.36h-3.59c-0.6,0-1.18-0.12-1.71-0.33
		c-1.21-0.48-2.18-1.44-2.65-2.65c-0.21-0.53-0.33-1.11-0.33-1.71c0-0.6,0.12-1.18,0.33-1.71c0.48-1.21,1.44-2.18,2.65-2.65
		c0.53-0.21,1.11-0.33,1.71-0.33h9.66h2.98V40.09z M63.11,49.91v2.98h-2.98h-4.91c-2.03,0-3.87-0.77-5.27-2.03
		c-1.61-1.44-2.62-3.53-2.62-5.86c0-4.36,3.53-7.89,7.89-7.89c1.86,0,3.56,0.65,4.91,1.72c1.81,1.45,2.98,3.67,2.98,6.17V49.91z
		 M73.26,52.87c-2.16,0.11-4.35-0.64-6-2.29c-3.08-3.08-3.08-8.08,0-11.16c1.31-1.31,2.98-2.06,4.69-2.26
		c2.3-0.26,4.7,0.49,6.47,2.26l1.45,1.45l-2.11,2.11l-1.45-1.45l0,0c-1.92-1.92-5.03-1.92-6.95,0c-1.92,1.92-1.92,5.03,0,6.95
		c1.92,1.92,5.03,1.92,6.95,0l0,0l1.45-1.45l2.11,2.11l-1.45,1.45C76.99,52.01,75.14,52.77,73.26,52.87z"/>
	<path class="st0" d="M55.22,40.09c-2.71,0-4.91,2.2-4.91,4.91c0,2.71,2.2,4.91,4.91,4.91h0h4.91V45v0
		C60.13,42.29,57.93,40.09,55.22,40.09z"/>
</g>
</svg>
